<svg width="239" height="53" viewBox="0 0 239 53" fill="none" xmlns="http://www.w3.org/2000/svg">
<path d="M0 11.9048C0 5.32994 5.32994 0 11.9048 0H38.0952C44.6701 0 50 5.32994 50 11.9048V38.0952C50 44.6701 44.6701 50 38.0952 50H11.9048C5.32994 50 0 44.6701 0 38.0952V11.9048Z" fill="#FF0055"/>
<path fill-rule="evenodd" clip-rule="evenodd" d="M38.0952 1.42857H11.9048C6.11892 1.42857 1.42857 6.11892 1.42857 11.9048V38.0952C1.42857 43.8811 6.11892 48.5714 11.9048 48.5714H38.0952C43.8811 48.5714 48.5714 43.8811 48.5714 38.0952V11.9048C48.5714 6.11892 43.8811 1.42857 38.0952 1.42857ZM11.9048 0C5.32994 0 0 5.32994 0 11.9048V38.0952C0 44.6701 5.32994 50 11.9048 50H38.0952C44.6701 50 50 44.6701 50 38.0952V11.9048C50 5.32994 44.6701 0 38.0952 0H11.9048Z" fill="#FF0055"/>
<path opacity="0.5" fill-rule="evenodd" clip-rule="evenodd" d="M30.9521 14.3089C30.9521 15.8996 29.645 17.1892 28.0325 17.1892L26.8616 17.1892C22.089 17.1892 18.22 21.006 18.22 25.7143C18.22 30.4226 22.089 34.2394 26.8616 34.2394L27.3788 34.2394C28.9913 34.2394 30.2985 35.5289 30.2985 37.1197C30.2985 38.7104 28.9913 40 27.3788 40L26.8616 40C18.864 40 12.3807 33.6041 12.3807 25.7143C12.3807 17.8245 18.864 11.4286 26.8616 11.4286L28.0325 11.4286C29.645 11.4286 30.9521 12.7181 30.9521 14.3089Z" fill="white"/>
<path opacity="0.7" fill-rule="evenodd" clip-rule="evenodd" d="M32.8574 14.3089C32.8574 15.8996 31.5503 17.1892 29.9378 17.1892L28.7668 17.1892C23.9942 17.1892 20.1253 21.006 20.1253 25.7143C20.1253 30.4226 23.9942 34.2394 28.7668 34.2394L29.2841 34.2394C30.8966 34.2394 32.2037 35.5289 32.2037 37.1197C32.2037 38.7104 30.8966 40 29.2841 40L28.7668 40C20.7693 40 14.286 33.6041 14.286 25.7143C14.286 17.8245 20.7693 11.4286 28.7668 11.4286L29.9378 11.4286C31.5503 11.4286 32.8574 12.7181 32.8574 14.3089Z" fill="white"/>
<path fill-rule="evenodd" clip-rule="evenodd" d="M34.7617 14.3089C34.7617 15.8996 33.4881 17.1892 31.9169 17.1892L30.776 17.1892C26.1258 17.1892 22.356 21.006 22.356 25.7143C22.356 30.4226 26.1258 34.2394 30.776 34.2394L31.28 34.2394C32.8511 34.2394 34.1248 35.5289 34.1248 37.1197C34.1248 38.7104 32.8511 40 31.28 40L30.776 40C22.9835 40 16.6665 33.6041 16.6665 25.7143C16.6665 17.8245 22.9835 11.4286 30.776 11.4286L31.9169 11.4286C33.4881 11.4286 34.7617 12.7181 34.7617 14.3089Z" fill="white"/>
<path d="M72.225 26.75C72.225 24.3467 72.7617 22.2 73.835 20.31C74.9317 18.3967 76.4133 16.915 78.28 15.865C80.17 14.7917 82.2817 14.255 84.615 14.255C87.345 14.255 89.7367 14.955 91.79 16.355C93.8433 17.755 95.2783 19.6917 96.095 22.165H90.46C89.9 20.9983 89.1067 20.1233 88.08 19.54C87.0767 18.9567 85.91 18.665 84.58 18.665C83.1567 18.665 81.885 19.0033 80.765 19.68C79.6683 20.3333 78.805 21.2667 78.175 22.48C77.5683 23.6933 77.265 25.1167 77.265 26.75C77.265 28.36 77.5683 29.7833 78.175 31.02C78.805 32.2333 79.6683 33.1783 80.765 33.855C81.885 34.5083 83.1567 34.835 84.58 34.835C85.91 34.835 87.0767 34.5433 88.08 33.96C89.1067 33.3533 89.9 32.4667 90.46 31.3H96.095C95.2783 33.7967 93.8433 35.745 91.79 37.145C89.76 38.5217 87.3683 39.21 84.615 39.21C82.2817 39.21 80.17 38.685 78.28 37.635C76.4133 36.5617 74.9317 35.08 73.835 33.19C72.7617 31.3 72.225 29.1533 72.225 26.75ZM105.18 22.62C105.81 21.5933 106.627 20.7883 107.63 20.205C108.657 19.6217 109.824 19.33 111.13 19.33V24.475H109.835C108.295 24.475 107.129 24.8367 106.335 25.56C105.565 26.2833 105.18 27.5433 105.18 29.34V39H100.28V19.61H105.18V22.62ZM113.171 29.235C113.171 27.275 113.556 25.5367 114.326 24.02C115.119 22.5033 116.181 21.3367 117.511 20.52C118.864 19.7033 120.369 19.295 122.026 19.295C123.472 19.295 124.732 19.5867 125.806 20.17C126.902 20.7533 127.777 21.4883 128.431 22.375V19.61H133.366V39H128.431V36.165C127.801 37.075 126.926 37.8333 125.806 38.44C124.709 39.0233 123.437 39.315 121.991 39.315C120.357 39.315 118.864 38.895 117.511 38.055C116.181 37.215 115.119 36.0367 114.326 34.52C113.556 32.98 113.171 31.2183 113.171 29.235ZM128.431 29.305C128.431 28.115 128.197 27.1 127.731 26.26C127.264 25.3967 126.634 24.7433 125.841 24.3C125.047 23.8333 124.196 23.6 123.286 23.6C122.376 23.6 121.536 23.8217 120.766 24.265C119.996 24.7083 119.366 25.3617 118.876 26.225C118.409 27.065 118.176 28.0683 118.176 29.235C118.176 30.4017 118.409 31.4283 118.876 32.315C119.366 33.1783 119.996 33.8433 120.766 34.31C121.559 34.7767 122.399 35.01 123.286 35.01C124.196 35.01 125.047 34.7883 125.841 34.345C126.634 33.8783 127.264 33.225 127.731 32.385C128.197 31.5217 128.431 30.495 128.431 29.305ZM147.041 23.635H143.646V39H138.676V23.635H136.471V19.61H138.676V18.63C138.676 16.25 139.353 14.5 140.706 13.38C142.06 12.26 144.101 11.735 146.831 11.805V15.935C145.641 15.9117 144.813 16.11 144.346 16.53C143.88 16.95 143.646 17.7083 143.646 18.805V19.61H147.041V23.635ZM168.767 19.61L156.762 48.17H151.547L155.747 38.51L147.977 19.61H153.472L158.477 33.155L163.552 19.61H168.767ZM182.328 19.33C183.798 19.33 185.105 19.6567 186.248 20.31C187.391 20.94 188.278 21.885 188.908 23.145C189.561 24.3817 189.888 25.875 189.888 27.625V39H184.988V28.29C184.988 26.75 184.603 25.5717 183.833 24.755C183.063 23.915 182.013 23.495 180.683 23.495C179.33 23.495 178.256 23.915 177.463 24.755C176.693 25.5717 176.308 26.75 176.308 28.29V39H171.408V13.1H176.308V22.025C176.938 21.185 177.778 20.5317 178.828 20.065C179.878 19.575 181.045 19.33 182.328 19.33ZM212.853 19.61V39H207.918V36.55C207.288 37.39 206.459 38.055 205.433 38.545C204.429 39.0117 203.333 39.245 202.143 39.245C200.626 39.245 199.284 38.93 198.118 38.3C196.951 37.6467 196.029 36.7017 195.353 35.465C194.699 34.205 194.373 32.7117 194.373 30.985V19.61H199.273V30.285C199.273 31.825 199.658 33.015 200.428 33.855C201.198 34.6717 202.248 35.08 203.578 35.08C204.931 35.08 205.993 34.6717 206.763 33.855C207.533 33.015 207.918 31.825 207.918 30.285V19.61H212.853ZM222.587 22.445C223.217 21.5117 224.081 20.7533 225.177 20.17C226.297 19.5867 227.569 19.295 228.992 19.295C230.649 19.295 232.142 19.7033 233.472 20.52C234.826 21.3367 235.887 22.5033 236.657 24.02C237.451 25.5133 237.847 27.2517 237.847 29.235C237.847 31.2183 237.451 32.98 236.657 34.52C235.887 36.0367 234.826 37.215 233.472 38.055C232.142 38.895 230.649 39.315 228.992 39.315C227.546 39.315 226.274 39.035 225.177 38.475C224.104 37.8917 223.241 37.145 222.587 36.235V39H217.687V13.1H222.587V22.445ZM232.842 29.235C232.842 28.0683 232.597 27.065 232.107 26.225C231.641 25.3617 231.011 24.7083 230.217 24.265C229.447 23.8217 228.607 23.6 227.697 23.6C226.811 23.6 225.971 23.8333 225.177 24.3C224.407 24.7433 223.777 25.3967 223.287 26.26C222.821 27.1233 222.587 28.1383 222.587 29.305C222.587 30.4717 222.821 31.4867 223.287 32.35C223.777 33.2133 224.407 33.8783 225.177 34.345C225.971 34.7883 226.811 35.01 227.697 35.01C228.607 35.01 229.447 34.7767 230.217 34.31C231.011 33.8433 231.641 33.1783 232.107 32.315C232.597 31.4517 232.842 30.425 232.842 29.235Z" fill="black"/>
</svg>
