<svg width="300" height="300" viewBox="0 0 300 300" fill="none" xmlns="http://www.w3.org/2000/svg">
<path d="M300 229.44H0V229.59H300V229.44Z" fill="#EBEBEB"/>
<path d="M269.94 239.094H250.068V239.244H269.94V239.094Z" fill="#EBEBEB"/>
<path d="M198.732 240.726H193.518V240.876H198.732V240.726Z" fill="#EBEBEB"/>
<path d="M249.468 233.526H237.954V233.676H249.468V233.526Z" fill="#EBEBEB"/>
<path d="M57.3901 234.534H31.4761V234.684H57.3901V234.534Z" fill="#EBEBEB"/>
<path d="M66.5341 234.534H62.7361V234.684H66.5341V234.534Z" fill="#EBEBEB"/>
<path d="M135.09 237.066H78.8821V237.216H135.09V237.066Z" fill="#EBEBEB"/>
<path d="M142.2 202.68H26.346C25.4384 202.678 24.5686 202.317 23.9274 201.674C23.2862 201.032 22.926 200.162 22.926 199.254V36.396C22.9339 35.4936 23.2975 34.6308 23.9379 33.9949C24.5782 33.3591 25.4436 33.0015 26.346 33H142.2C143.109 33 143.98 33.361 144.623 34.0035C145.265 34.646 145.626 35.5174 145.626 36.426V199.254C145.626 200.163 145.265 201.034 144.623 201.677C143.98 202.319 143.109 202.68 142.2 202.68ZM26.346 33.12C25.4782 33.1216 24.6465 33.4674 24.0334 34.0816C23.4204 34.6958 23.076 35.5282 23.076 36.396V199.254C23.076 200.122 23.4204 200.954 24.0334 201.568C24.6465 202.183 25.4782 202.528 26.346 202.53H142.2C143.068 202.528 143.901 202.183 144.515 201.569C145.129 200.955 145.474 200.122 145.476 199.254V36.396C145.474 35.5276 145.129 34.6953 144.515 34.0813C143.901 33.4672 143.068 33.1216 142.2 33.12H26.346Z" fill="#EBEBEB"/>
<path d="M271.986 202.68H156.126C155.218 202.678 154.347 202.317 153.705 201.675C153.063 201.033 152.702 200.162 152.7 199.254V36.396C152.709 35.4931 153.074 34.6302 153.716 33.9946C154.357 33.3589 155.223 33.0015 156.126 33H271.986C272.887 33.0031 273.751 33.3613 274.39 33.997C275.029 34.6327 275.392 35.4947 275.4 36.396V199.254C275.4 200.161 275.041 201.03 274.401 201.672C273.761 202.314 272.892 202.677 271.986 202.68ZM156.126 33.12C155.258 33.1216 154.425 33.4672 153.811 34.0813C153.197 34.6953 152.852 35.5276 152.85 36.396V199.254C152.852 200.122 153.197 200.955 153.811 201.569C154.425 202.183 155.258 202.528 156.126 202.53H271.986C272.854 202.528 273.687 202.183 274.301 201.569C274.915 200.955 275.26 200.122 275.262 199.254V36.396C275.26 35.5276 274.915 34.6953 274.301 34.0813C273.687 33.4672 272.854 33.1216 271.986 33.12H156.126Z" fill="#EBEBEB"/>
<path d="M32.988 229.434H49.302L49.302 185.97H32.988V229.434Z" fill="#E6E6E6"/>
<path d="M36.0839 229.44H32.9819V217.95H39.3299L36.0839 229.44Z" fill="#F0F0F0"/>
<path d="M126.06 229.434H142.374V185.97H126.06V229.434Z" fill="#E6E6E6"/>
<path d="M32.9881 226.302H128.766V185.97H32.9881V226.302Z" fill="#F0F0F0"/>
<path d="M125.664 229.44H128.766V217.95H122.418L125.664 229.44Z" fill="#F0F0F0"/>
<path d="M125.88 221.448H96.8879V190.416H125.88V221.448ZM97.4879 220.848H125.28V191.016H97.4879V220.848Z" fill="#E6E6E6"/>
<path d="M95.3999 221.448H66.3779V190.416H95.3999V221.448ZM67.0079 220.848H94.7999V191.016H66.9779L67.0079 220.848Z" fill="#E6E6E6"/>
<path d="M64.8599 221.448H35.8679V190.416H64.8599V221.448ZM36.4679 220.848H64.2599V191.016H36.4679V220.848Z" fill="#E6E6E6"/>
<path d="M162.876 138.996H259.002V57.15L162.876 57.15V138.996Z" fill="#E6E6E6"/>
<path d="M160.716 138.996H258.06V57.15L160.716 57.15V138.996Z" fill="#F5F5F5"/>
<path d="M254.184 135.066V61.074L164.604 61.074V135.066H254.184Z" fill="#FAFAFA"/>
<path d="M243.186 135.066L207.93 61.08H195.954L231.21 135.066H243.186Z" fill="white"/>
<path d="M227.814 135.066L192.558 61.08H184.314L219.57 135.066H227.814Z" fill="white"/>
<path d="M197.862 135.072V61.08H193.23V135.072H197.862Z" fill="#E6E6E6"/>
<path d="M228.654 135.072V61.08H224.022V135.072H228.654Z" fill="#E6E6E6"/>
<path d="M197.022 137.562V58.158H191.166V137.562H197.022Z" fill="#F5F5F5"/>
<path d="M227.814 137.562V58.158H221.958V137.562H227.814Z" fill="#F5F5F5"/>
<path d="M165.012 135.072V61.08H164.598V135.072H165.012Z" fill="#E6E6E6"/>
<path d="M159.084 52.098H263.226C263.359 52.0996 263.485 52.1534 263.578 52.2477C263.672 52.3421 263.724 52.4694 263.724 52.602C263.724 52.7341 263.671 52.8607 263.578 52.9541C263.485 53.0475 263.358 53.1 263.226 53.1H159.084C158.952 53.1 158.825 53.0475 158.732 52.9541C158.638 52.8607 158.586 52.7341 158.586 52.602C158.586 52.4694 158.638 52.3421 158.731 52.2477C158.825 52.1534 158.951 52.0996 159.084 52.098Z" fill="#E6E6E6"/>
<path d="M259.002 55.404C259.181 55.4024 259.353 55.3305 259.48 55.2037C259.606 55.0769 259.678 54.9053 259.68 54.726V53.274C259.678 53.0952 259.606 52.9243 259.479 52.7985C259.352 52.6726 259.181 52.602 259.002 52.602C258.823 52.602 258.652 52.6726 258.525 52.7985C258.398 52.9243 258.326 53.0952 258.324 53.274V54.726C258.326 54.9053 258.397 55.0769 258.524 55.2037C258.651 55.3305 258.823 55.4024 259.002 55.404Z" fill="#E6E6E6"/>
<path d="M166.638 55.404C166.817 55.4024 166.989 55.3305 167.116 55.2037C167.242 55.0769 167.314 54.9053 167.316 54.726V53.274C167.314 53.0952 167.242 52.9243 167.115 52.7985C166.988 52.6726 166.817 52.602 166.638 52.602C166.459 52.602 166.288 52.6726 166.161 52.7985C166.034 52.9243 165.962 53.0952 165.96 53.274V54.726C165.962 54.9053 166.033 55.0769 166.16 55.2037C166.287 55.3305 166.459 55.4024 166.638 55.404Z" fill="#E6E6E6"/>
<path opacity="0.6" d="M159.24 93.222L256.518 93.222V52.602L159.24 52.602V93.222Z" fill="#E0E0E0"/>
<path d="M67.9501 157.23H54.3481C52.9 157.23 51.7261 158.404 51.7261 159.852V183.348C51.7261 184.796 52.9 185.97 54.3481 185.97H67.9501C69.3982 185.97 70.5721 184.796 70.5721 183.348V159.852C70.5721 158.404 69.3982 157.23 67.9501 157.23Z" fill="#FAFAFA"/>
<path d="M69.6901 155.1H52.6081C52.121 155.1 51.7261 155.495 51.7261 155.982V156.69C51.7261 157.177 52.121 157.572 52.6081 157.572H69.6901C70.1772 157.572 70.5721 157.177 70.5721 156.69V155.982C70.5721 155.495 70.1772 155.1 69.6901 155.1Z" fill="#E6E6E6"/>
<path d="M119.598 165.114H109.728C108.677 165.114 107.826 165.966 107.826 167.016V184.074C107.826 185.124 108.677 185.976 109.728 185.976H119.598C120.648 185.976 121.5 185.124 121.5 184.074V167.016C121.5 165.966 120.648 165.114 119.598 165.114Z" fill="#F0F0F0"/>
<path d="M120.864 163.566H108.462C108.111 163.566 107.826 163.851 107.826 164.202V164.724C107.826 165.075 108.111 165.36 108.462 165.36H120.864C121.215 165.36 121.5 165.075 121.5 164.724V164.202C121.5 163.851 121.215 163.566 120.864 163.566Z" fill="#E6E6E6"/>
<path d="M88.2721 169.212H69.5761C67.5878 169.212 65.9761 170.824 65.9761 172.812V182.37C65.9761 184.358 67.5878 185.97 69.5761 185.97H88.2721C90.2603 185.97 91.8721 184.358 91.8721 182.37V172.812C91.8721 170.824 90.2603 169.212 88.2721 169.212Z" fill="#F0F0F0"/>
<path d="M90.6661 166.284H67.1821C66.516 166.284 65.9761 166.824 65.9761 167.49V168.474C65.9761 169.14 66.516 169.68 67.1821 169.68H90.6661C91.3321 169.68 91.8721 169.14 91.8721 168.474V167.49C91.8721 166.824 91.3321 166.284 90.6661 166.284Z" fill="#F5F5F5"/>
<path d="M169.458 229.44H172.482V179.856H169.458V229.44Z" fill="#E6E6E6"/>
<path d="M256.776 170.202H240.402V179.85H256.776V170.202Z" fill="#E6E6E6"/>
<path d="M158.988 179.856H240.396V170.208H158.988V179.856Z" fill="#F5F5F5"/>
<path d="M256.776 195.972H240.402V205.62H256.776V195.972Z" fill="#E6E6E6"/>
<path d="M158.988 205.62H240.396V195.972H158.988V205.62Z" fill="#F5F5F5"/>
<path d="M250.866 229.44H253.89V179.856H250.866V229.44Z" fill="#E6E6E6"/>
<path d="M237.372 229.44H240.396V179.856H237.372V229.44Z" fill="#F5F5F5"/>
<path d="M158.988 229.44H162.012V179.856H158.988V229.44Z" fill="#F5F5F5"/>
<path d="M41.808 104.424H80.292V61.266L41.808 61.266L41.808 104.424Z" fill="#F0F0F0"/>
<path d="M39.0899 104.424H79.6919V61.266L39.0899 61.266L39.0899 104.424Z" fill="#F5F5F5"/>
<path d="M42.4919 64.662V101.022H76.2899V64.662H42.4919Z" fill="white"/>
<path d="M53.7901 72.36C52.2191 72.3499 50.6933 72.8857 49.4736 73.8758C48.2538 74.8659 47.4158 76.2489 47.1026 77.7884C46.7895 79.328 47.0207 80.9284 47.7567 82.3164C48.4928 83.7043 49.688 84.7936 51.1381 85.398L76.2961 96V81.252L56.4001 72.882C55.573 72.5377 54.686 72.3603 53.7901 72.36Z" fill="#F0F0F0"/>
<path d="M92.9159 126H131.4V82.842H92.9159V126Z" fill="#F0F0F0"/>
<path d="M90.1981 126H130.8V82.842H90.1981V126Z" fill="#F5F5F5"/>
<path d="M93.6001 86.238V122.598H127.398V86.238H93.6001Z" fill="white"/>
<path d="M114.306 100.302L93.6001 91.59V106.668L108.912 113.106C110.61 113.822 112.523 113.834 114.23 113.14C115.937 112.446 117.298 111.102 118.014 109.404C118.73 107.706 118.742 105.793 118.048 104.086C117.354 102.379 116.01 101.018 114.312 100.302H114.306Z" fill="#F0F0F0"/>
<path d="M150 256.536C214.249 256.536 266.334 253.495 266.334 249.744C266.334 245.993 214.249 242.952 150 242.952C85.7505 242.952 33.666 245.993 33.666 249.744C33.666 253.495 85.7505 256.536 150 256.536Z" fill="#F5F5F5"/>
<path d="M116.442 69.726C117.042 67.2 123.318 64.8 128.718 68.526C131.112 70.1469 132.907 72.5089 133.829 75.2491C134.75 77.9892 134.746 80.9561 133.818 83.694C130.92 92.274 146.046 91.956 149.55 106.422C152.316 117.822 149.754 133.968 134.316 133.092C110.754 131.754 112.788 108.726 111.756 96.624C110.724 84.522 97.866 70.95 116.442 69.726Z" fill="#263238"/>
<path d="M108.66 102.036C108.558 103.788 108.354 105.39 108.126 107.052C107.898 108.714 107.58 110.34 107.226 111.972C106.872 113.604 106.47 115.236 105.96 116.844C105.467 118.476 104.882 120.078 104.208 121.644L103.68 122.844C103.602 123.018 103.458 123.282 103.35 123.504C103.242 123.726 103.098 123.93 102.972 124.146C102.478 124.915 101.929 125.647 101.328 126.336C100.21 127.615 99.0073 128.818 97.7278 129.936C95.2476 132.128 92.6084 134.134 89.8318 135.936L88.2358 133.8C89.3638 132.708 90.5158 131.58 91.6258 130.452C92.7358 129.324 93.8338 128.178 94.8778 127.014C95.9064 125.886 96.8777 124.706 97.7878 123.48C98.2038 122.906 98.5807 122.305 98.9158 121.68C98.9818 121.542 99.0658 121.398 99.1198 121.266C99.1738 121.134 99.2338 121.026 99.2998 120.828L99.7078 119.772C100.737 116.873 101.54 113.898 102.108 110.874C102.414 109.35 102.636 107.802 102.864 106.26C103.092 104.718 103.266 103.128 103.398 101.664L108.66 102.036Z" fill="#FFB573"/>
<path d="M105.06 95.736C102.93 96.276 101.46 105.048 101.46 105.048L109.614 110.592C109.614 110.592 112.968 100.194 111.324 97.848C109.596 95.4 108.168 94.944 105.06 95.736Z" fill="#FF0055"/>
<path opacity="0.2" d="M105.252 97.692L103.614 106.536L106.914 108.774L105.252 97.692Z" fill="black"/>
<path d="M89.208 133.068L83.718 133.944L86.85 137.412C86.85 137.412 90.084 136.674 90.654 134.604L89.208 133.068Z" fill="#FFB573"/>
<path d="M81.1199 134.634L84.2519 138.024L86.8499 137.412L83.7179 133.944L81.1199 134.634Z" fill="#FFB573"/>
<path d="M116.592 243.36H111.42L111.072 231.384H116.244L116.592 243.36Z" fill="#FFB573"/>
<path d="M152.352 228.12L147.564 230.076L141.498 219.618L146.286 217.662L152.352 228.12Z" fill="#FFB573"/>
<path d="M146.664 229.356L151.656 226.392C151.742 226.339 151.844 226.318 151.943 226.335C152.042 226.352 152.132 226.404 152.196 226.482L155.112 230.082C155.179 230.175 155.226 230.282 155.25 230.394C155.274 230.507 155.275 230.623 155.251 230.736C155.228 230.848 155.182 230.955 155.116 231.049C155.05 231.143 154.964 231.222 154.866 231.282C153.108 232.284 152.208 232.68 150.012 233.988C148.662 234.792 145.482 237.54 143.616 238.65C141.75 239.76 140.556 237.972 141.216 237.342C143.416 235.353 145.083 232.845 146.064 230.046C146.18 229.755 146.392 229.511 146.664 229.356Z" fill="#263238"/>
<path d="M111.24 242.766H117.054C117.153 242.764 117.249 242.798 117.325 242.862C117.4 242.926 117.449 243.016 117.462 243.114L118.128 247.716C118.14 247.832 118.127 247.949 118.091 248.06C118.055 248.17 117.996 248.272 117.918 248.359C117.84 248.445 117.744 248.514 117.638 248.562C117.532 248.609 117.417 248.634 117.3 248.634C115.272 248.598 114.3 248.478 111.738 248.478C110.166 248.478 106.938 248.64 104.748 248.64C102.558 248.64 102.462 246.498 103.362 246.3C107.418 245.43 109.014 244.23 110.376 243.084C110.617 242.879 110.923 242.766 111.24 242.766Z" fill="#263238"/>
<g opacity="0.2">
<path d="M111.078 231.39L111.252 237.564H116.424L116.25 231.39H111.078Z" fill="black"/>
<path d="M146.292 217.662L141.498 219.618L144.63 225.012L149.418 223.056L146.292 217.662Z" fill="black"/>
</g>
<path d="M105.06 95.736C105.06 95.736 102.594 96.6 107.532 126.936H128.532C128.178 118.386 128.172 113.136 132.258 95.574C129.317 94.9573 126.335 94.5563 123.336 94.374C120.162 94.1457 116.976 94.1457 113.802 94.374C109.704 94.8 105.06 95.736 105.06 95.736Z" fill="#FF0055"/>
<path opacity="0.2" d="M130.524 102.528C128.622 103.002 126.864 105.078 127.074 108.9C127.192 110.633 127.8 112.298 128.826 113.7C129.162 110.76 129.726 107.346 130.626 102.978L130.524 102.528Z" fill="black"/>
<path d="M114.906 102.798C114.906 102.798 117.636 104.484 118.35 106.998C121.314 104.826 125.34 98.784 125.502 95.166C125.503 95.0607 125.483 94.9563 125.443 94.8588C125.403 94.7613 125.345 94.6726 125.27 94.5978C125.196 94.5231 125.108 94.4638 125.011 94.4233C124.914 94.3828 124.809 94.362 124.704 94.362C124.247 94.3502 123.79 94.3703 123.336 94.422L114.906 102.798Z" fill="#FAFAFA"/>
<path d="M114.906 102.798C114.906 102.798 112.176 104.484 111.462 106.998C108.276 104.664 110.046 96.96 111.87 94.398C112.512 94.3303 113.16 94.3303 113.802 94.398L114.906 102.798Z" fill="#FAFAFA"/>
<path d="M122.4 83.67C121.8 86.736 121.2 92.358 123.342 94.41C121.352 97.9275 118.436 100.833 114.912 102.81C110.658 99.414 113.808 94.41 113.808 94.41C117.228 93.594 117.138 91.05 116.544 88.668L122.4 83.67Z" fill="#FFB573"/>
<path opacity="0.2" d="M120 85.71L116.532 88.668C116.682 89.2218 116.78 89.7882 116.826 90.36C118.134 90.168 120.192 89.058 120.474 87.636C120.6 86.964 120.12 86.028 120 85.71Z" fill="black"/>
<path d="M127.536 78.738C126.12 83.67 125.622 85.788 122.526 87.798C117.87 90.798 112.122 87.99 112.038 82.734C111.96 78 114.294 70.734 119.634 69.828C120.81 69.6227 122.019 69.7216 123.145 70.1154C124.272 70.5092 125.28 71.1847 126.072 72.0777C126.864 72.9708 127.414 74.0516 127.67 75.2174C127.927 76.3831 127.88 77.5951 127.536 78.738Z" fill="#FFB573"/>
<path d="M116.886 70.266C117.12 71.934 126.252 77.298 127.986 74.502C129.72 71.706 127.224 69.6 123.336 69.066C121.112 68.7169 118.836 69.1404 116.886 70.266Z" fill="#263238"/>
<path d="M122.838 71.172C121.716 72.648 124.092 83.28 127.494 82.278C130.896 81.276 130.74 77.874 128.376 74.736C127.038 72.8997 125.063 71.6288 122.838 71.172Z" fill="#263238"/>
<path d="M107.532 126.948C107.532 126.948 103.452 166.8 103.8 182.55C104.154 198.954 110.166 236.37 110.166 236.37H117.156C117.156 236.37 116.052 199.914 116.67 183.804C117.342 166.242 122.922 126.948 122.922 126.948H107.532Z" fill="#FF0055"/>
<path opacity="0.4" d="M107.532 126.948C107.532 126.948 103.452 166.8 103.8 182.55C104.154 198.954 110.166 236.37 110.166 236.37H117.156C117.156 236.37 116.052 199.914 116.67 183.804C117.342 166.242 122.922 126.948 122.922 126.948H107.532Z" fill="black"/>
<path d="M117.75 236.616H109.548L108.948 234L118.134 233.682L117.75 236.616Z" fill="#263238"/>
<path opacity="0.2" d="M116.592 136.86C111.432 147.234 115.554 166.164 117.378 173.208C118.314 162.63 119.892 149.7 121.122 140.208C120.336 134.832 118.968 132.072 116.592 136.86Z" fill="black"/>
<path d="M113.076 126.948C113.076 126.948 117.834 168.348 121.428 181.656C125.694 197.442 143.028 224.376 143.028 224.376L149.556 221.712C149.556 221.712 138.366 191.046 135.102 182.712C128.142 164.958 134.1 138.51 128.538 126.912L113.076 126.948Z" fill="#FF0055"/>
<path opacity="0.4" d="M113.076 126.948C113.076 126.948 117.834 168.348 121.428 181.656C125.694 197.442 143.028 224.376 143.028 224.376L149.556 221.712C149.556 221.712 138.366 191.046 135.102 182.712C128.142 164.958 134.1 138.51 128.538 126.912L113.076 126.948Z" fill="black"/>
<path d="M150.444 221.742L142.344 225.048L140.442 222.858L149.796 218.538L150.444 221.742Z" fill="#263238"/>
<path d="M54.9659 74.256C49.7407 78.8806 46.0042 84.9507 44.2288 91.6989C42.4535 98.447 42.7192 105.57 44.9921 112.167C47.2651 118.765 51.4434 124.54 56.9985 128.762C62.5537 132.985 69.2362 135.465 76.2011 135.89C83.1659 136.314 90.1003 134.664 96.1272 131.147C102.154 127.631 107.003 122.406 110.061 116.134C113.118 109.862 114.247 102.824 113.305 95.91C112.362 88.9962 109.391 82.517 104.766 77.292C98.5637 70.2871 89.8333 66.0322 80.4945 65.4629C71.1558 64.8935 61.9732 68.0564 54.9659 74.256ZM98.0279 122.916C93.6295 126.808 88.1759 129.308 82.3566 130.1C76.5374 130.892 70.614 129.941 65.3354 127.366C60.0568 124.792 55.6601 120.71 52.7013 115.637C49.7425 110.564 48.3545 104.727 48.7128 98.8655C49.0711 93.0035 51.1596 87.3794 54.7142 82.7045C58.2689 78.0295 63.1299 74.5135 68.6828 72.6013C74.2356 70.689 80.2308 70.4662 85.9102 71.9612C91.5896 73.4562 96.6982 76.6017 100.59 81C103.174 83.9204 105.158 87.3213 106.427 91.0083C107.697 94.6953 108.228 98.5963 107.99 102.489C107.752 106.381 106.75 110.188 105.041 113.693C103.331 117.198 100.948 120.332 98.0279 122.916Z" fill="#263238"/>
<path opacity="0.3" d="M76.6919 127.842C71.3177 127.519 66.1601 125.609 61.8717 122.353C57.5832 119.098 54.3566 114.644 52.6 109.555C50.8433 104.466 50.6356 98.9697 52.0032 93.7623C53.3707 88.555 56.2519 83.8702 60.2824 80.3007C64.313 76.7311 69.3117 74.4372 74.6461 73.7091C79.9806 72.9811 85.4112 73.8515 90.2508 76.2104C95.0905 78.5693 99.1218 82.3106 101.835 86.961C104.548 91.6115 105.82 96.9621 105.492 102.336C105.05 109.536 101.769 116.265 96.3691 121.048C90.9692 125.83 83.8921 128.274 76.6919 127.842Z" fill="#FF0055"/>
<g opacity="0.5">
<path d="M80.004 73.512H79.4941L51.222 98.532L51.186 99.042C50.8192 104.941 52.3911 110.799 55.662 115.722L96 79.98C91.5148 76.1394 85.8982 73.8683 80.004 73.512Z" fill="#FAFAFA"/>
<path d="M98.634 82.536L57.876 118.602C59.2372 120.174 60.7754 121.583 62.46 122.802L102.216 87.6C101.219 85.781 100.017 84.0819 98.634 82.536Z" fill="#FAFAFA"/>
</g>
<path d="M106.11 127.362L101.466 131.472C101.128 131.77 100.686 131.922 100.236 131.895C99.7865 131.868 99.3657 131.664 99.066 131.328C98.7707 130.989 98.6204 130.547 98.6474 130.099C98.6743 129.65 98.8763 129.229 99.21 128.928L103.854 124.818C104.193 124.521 104.635 124.369 105.085 124.397C105.535 124.426 105.955 124.631 106.254 124.968C106.552 125.305 106.704 125.746 106.677 126.195C106.65 126.644 106.446 127.063 106.11 127.362Z" fill="#263238"/>
<path d="M104.4 126.6C107.898 129.678 111.246 132.894 114.552 136.152C117.858 139.41 121.086 142.752 124.278 146.076C127.47 149.4 130.602 152.832 133.71 156.276C136.626 159.876 140.598 162.54 141.192 168.192C141.238 168.644 141.177 169.101 141.012 169.524C140.847 169.947 140.583 170.325 140.243 170.627C139.903 170.928 139.496 171.144 139.056 171.257C138.616 171.37 138.155 171.377 137.712 171.276C132.168 169.998 130.014 165.732 126.798 162.396C123.766 158.896 120.778 155.364 117.834 151.8C114.89 148.236 112 144.614 109.164 140.934C106.332 137.262 103.548 133.548 100.914 129.702C100.576 129.231 100.424 128.651 100.488 128.075C100.552 127.499 100.827 126.967 101.26 126.582C101.693 126.196 102.254 125.985 102.834 125.988C103.413 125.992 103.971 126.21 104.4 126.6Z" fill="#263238"/>
<path d="M119.268 78.294C119.178 78.702 118.89 78.984 118.62 78.894C118.35 78.804 118.212 78.456 118.302 78.054C118.392 77.652 118.68 77.364 118.95 77.454C119.22 77.544 119.358 77.886 119.268 78.294Z" fill="#263238"/>
<path d="M114.666 77.274C114.576 77.682 114.282 77.964 114.018 77.904C113.754 77.844 113.61 77.466 113.7 77.058C113.79 76.65 114.078 76.368 114.348 76.428C114.618 76.488 114.756 76.866 114.666 77.274Z" fill="#263238"/>
<path d="M114.462 76.476L113.544 75.978C113.544 75.978 113.874 76.854 114.462 76.476Z" fill="#263238"/>
<path d="M115.92 78.324C115.351 79.1709 114.668 79.936 113.892 80.598C114.066 80.7932 114.281 80.948 114.522 81.0517C114.762 81.1553 115.022 81.2052 115.284 81.198L115.92 78.324Z" fill="#ED893E"/>
<path d="M117.15 83.28C116.948 83.2658 116.747 83.2357 116.55 83.19C116.534 83.1865 116.52 83.1799 116.507 83.1708C116.494 83.1616 116.483 83.15 116.475 83.1366C116.467 83.1233 116.461 83.1084 116.458 83.0928C116.456 83.0773 116.456 83.0614 116.46 83.046C116.463 83.0306 116.47 83.0161 116.479 83.0033C116.488 82.9904 116.5 82.9795 116.513 82.9712C116.527 82.9628 116.541 82.9572 116.557 82.9546C116.573 82.952 116.588 82.9525 116.604 82.956C117.108 83.0784 117.634 83.0809 118.139 82.9631C118.645 82.8454 119.116 82.6107 119.514 82.278C119.524 82.2621 119.538 82.2487 119.554 82.2387C119.57 82.2288 119.588 82.2226 119.606 82.2205C119.625 82.2185 119.644 82.2207 119.662 82.2269C119.68 82.2332 119.696 82.2434 119.709 82.2567C119.722 82.27 119.733 82.2862 119.739 82.304C119.745 82.3218 119.747 82.3407 119.745 82.3595C119.743 82.3782 119.737 82.3962 119.727 82.4123C119.717 82.4283 119.704 82.4419 119.688 82.452C119.341 82.7511 118.938 82.9783 118.502 83.1205C118.066 83.2626 117.607 83.3168 117.15 83.28Z" fill="#263238"/>
<path d="M127.866 83.658C127.589 84.0661 127.235 84.4155 126.823 84.6863C126.411 84.9571 125.95 85.1439 125.466 85.236C124.17 85.476 123.666 84.288 124.104 83.13C124.512 82.086 125.688 80.73 126.936 80.994C127.208 81.0615 127.458 81.1957 127.665 81.3843C127.872 81.573 128.029 81.8102 128.121 82.0746C128.213 82.3389 128.238 82.6221 128.194 82.8986C128.149 83.175 128.037 83.436 127.866 83.658Z" fill="#FFB573"/>
<path d="M121.2 76.5C121.151 76.5148 121.099 76.5141 121.051 76.498C121.002 76.4819 120.96 76.4511 120.93 76.41C120.264 75.492 118.8 75.504 118.788 75.504C118.723 75.504 118.66 75.4781 118.614 75.432C118.568 75.3858 118.542 75.3232 118.542 75.258C118.541 75.226 118.547 75.1941 118.559 75.1643C118.57 75.1345 118.588 75.1073 118.61 75.0844C118.633 75.0615 118.659 75.0433 118.689 75.0308C118.718 75.0184 118.75 75.012 118.782 75.012C118.854 75.012 120.51 75.012 121.326 76.122C121.364 76.1746 121.38 76.2401 121.369 76.3041C121.359 76.3682 121.324 76.4256 121.272 76.464L121.2 76.5Z" fill="#263238"/>
<path d="M113.706 73.902C113.664 73.899 113.623 73.8853 113.587 73.8622C113.551 73.8391 113.522 73.8074 113.502 73.77C113.473 73.7119 113.468 73.6445 113.488 73.5827C113.508 73.5208 113.552 73.4695 113.61 73.44C113.953 73.256 114.335 73.1563 114.724 73.149C115.113 73.1417 115.498 73.227 115.848 73.398C115.903 73.4317 115.943 73.4854 115.96 73.548C115.977 73.6105 115.969 73.6772 115.938 73.734C115.905 73.7905 115.852 73.8317 115.789 73.8486C115.726 73.8655 115.658 73.8566 115.602 73.824C115.324 73.6927 115.018 73.6291 114.71 73.6385C114.403 73.6479 114.102 73.73 113.832 73.878C113.792 73.8946 113.749 73.9028 113.706 73.902Z" fill="#263238"/>
<path d="M144.678 231.318H144.6C144.484 231.291 144.377 231.236 144.288 231.156C144.2 231.076 144.134 230.975 144.096 230.862C144.062 230.796 144.047 230.722 144.053 230.648C144.058 230.574 144.083 230.503 144.126 230.442C144.504 229.902 146.376 229.968 146.586 229.98C146.61 229.979 146.634 229.986 146.653 230C146.673 230.014 146.687 230.035 146.694 230.058C146.702 230.081 146.703 230.105 146.698 230.128C146.693 230.152 146.681 230.173 146.664 230.19C146.202 230.646 145.32 231.396 144.678 231.318ZM146.298 230.208C145.548 230.208 144.546 230.292 144.348 230.574C144.332 230.602 144.323 230.634 144.323 230.667C144.323 230.7 144.332 230.732 144.348 230.76C144.372 230.835 144.415 230.904 144.473 230.958C144.531 231.013 144.601 231.052 144.678 231.072C145.02 231.15 145.614 230.82 146.298 230.208Z" fill="#FF0055"/>
<path d="M146.4 230.208C145.758 230.13 144.6 229.692 144.444 229.188C144.412 229.096 144.412 228.996 144.445 228.904C144.478 228.812 144.541 228.735 144.624 228.684C144.697 228.626 144.783 228.584 144.874 228.562C144.965 228.541 145.06 228.539 145.152 228.558C145.89 228.702 146.658 229.98 146.694 230.034C146.703 230.053 146.708 230.073 146.708 230.094C146.708 230.115 146.703 230.135 146.694 230.154C146.683 230.172 146.667 230.188 146.648 230.198C146.629 230.209 146.608 230.214 146.586 230.214C146.524 230.218 146.462 230.216 146.4 230.208ZM145.074 228.792C144.967 228.78 144.859 228.81 144.774 228.876C144.648 228.972 144.654 229.05 144.678 229.104C144.798 229.446 145.728 229.872 146.352 229.956C146.076 229.542 145.548 228.882 145.11 228.798L145.074 228.792Z" fill="#FF0055"/>
<path d="M109.302 243.666C108.86 243.708 108.417 243.595 108.048 243.348C107.964 243.274 107.9 243.181 107.861 243.076C107.822 242.971 107.81 242.859 107.826 242.748C107.829 242.681 107.849 242.616 107.885 242.559C107.92 242.502 107.97 242.455 108.03 242.424C108.666 242.07 110.73 243.126 110.958 243.246C110.98 243.258 110.999 243.276 111.01 243.299C111.022 243.321 111.027 243.347 111.024 243.372C111.021 243.397 111.011 243.421 110.993 243.439C110.976 243.458 110.953 243.47 110.928 243.474C110.393 243.59 109.849 243.654 109.302 243.666ZM108.378 242.598C108.3 242.593 108.221 242.608 108.15 242.64C108.126 242.654 108.106 242.673 108.092 242.696C108.077 242.719 108.068 242.745 108.066 242.772C108.057 242.845 108.065 242.919 108.09 242.987C108.115 243.056 108.156 243.118 108.21 243.168C108.522 243.45 109.374 243.498 110.52 243.306C109.851 242.951 109.127 242.712 108.378 242.598Z" fill="#FF0055"/>
<path d="M110.904 243.486H110.856C110.256 243.21 109.02 242.094 109.116 241.506C109.116 241.368 109.236 241.194 109.572 241.158C109.694 241.145 109.817 241.157 109.934 241.195C110.05 241.232 110.158 241.293 110.25 241.374C110.904 241.914 111.024 243.306 111.024 243.366C111.027 243.387 111.024 243.408 111.016 243.427C111.007 243.446 110.994 243.463 110.976 243.474C110.954 243.486 110.929 243.49 110.904 243.486ZM109.674 241.386H109.596C109.374 241.386 109.362 241.5 109.356 241.53C109.296 241.878 110.124 242.76 110.754 243.138C110.705 242.55 110.475 241.992 110.094 241.542C109.979 241.438 109.829 241.382 109.674 241.386Z" fill="#FF0055"/>
<path d="M119.064 77.502L118.146 76.998C118.146 76.998 118.476 77.874 119.064 77.502Z" fill="#263238"/>
<path d="M128.85 125.712L129.384 127.59C129.456 127.74 129.288 127.89 129.042 127.89H107.4C107.214 127.89 107.058 127.794 107.046 127.674L106.854 125.796C106.854 125.664 107.004 125.556 107.214 125.556H128.484C128.553 125.545 128.625 125.554 128.689 125.582C128.754 125.61 128.81 125.655 128.85 125.712Z" fill="#FF0055"/>
<path opacity="0.2" d="M128.85 125.712L129.384 127.59C129.456 127.74 129.288 127.89 129.042 127.89H107.4C107.214 127.89 107.058 127.794 107.046 127.674L106.854 125.796C106.854 125.664 107.004 125.556 107.214 125.556H128.484C128.553 125.545 128.625 125.554 128.689 125.582C128.754 125.61 128.81 125.655 128.85 125.712Z" fill="black"/>
<path d="M125.922 128.088H126.492C126.606 128.088 126.69 128.034 126.684 127.962L126.414 125.52C126.414 125.448 126.306 125.388 126.198 125.388H125.598C125.484 125.388 125.394 125.448 125.406 125.52L125.67 127.962C125.706 128.034 125.808 128.088 125.922 128.088Z" fill="#FF0055"/>
<path opacity="0.4" d="M125.922 128.088H126.492C126.606 128.088 126.69 128.034 126.684 127.962L126.414 125.52C126.414 125.448 126.306 125.388 126.198 125.388H125.598C125.484 125.388 125.394 125.448 125.406 125.52L125.67 127.962C125.706 128.034 125.808 128.088 125.922 128.088Z" fill="white"/>
<path d="M109.026 128.088H109.596C109.71 128.088 109.794 128.034 109.788 127.962L109.524 125.52C109.524 125.448 109.416 125.388 109.302 125.388H108.732C108.618 125.388 108.534 125.448 108.54 125.52L108.804 127.962C108.816 128.034 108.912 128.088 109.026 128.088Z" fill="#FF0055"/>
<path opacity="0.4" d="M109.026 128.088H109.596C109.71 128.088 109.794 128.034 109.788 127.962L109.524 125.52C109.524 125.448 109.416 125.388 109.302 125.388H108.732C108.618 125.388 108.534 125.448 108.54 125.52L108.804 127.962C108.816 128.034 108.912 128.088 109.026 128.088Z" fill="white"/>
<path d="M117.438 128.088H118.038C118.152 128.088 118.236 128.034 118.23 127.962L117.966 125.52C117.966 125.448 117.858 125.388 117.744 125.388H117.174C117.06 125.388 116.976 125.448 116.982 125.52L117.246 127.962C117.228 128.034 117.324 128.088 117.438 128.088Z" fill="#FF0055"/>
<path opacity="0.4" d="M117.438 128.088H118.038C118.152 128.088 118.236 128.034 118.23 127.962L117.966 125.52C117.966 125.448 117.858 125.388 117.744 125.388H117.174C117.06 125.388 116.976 125.448 116.982 125.52L117.246 127.962C117.228 128.034 117.324 128.088 117.438 128.088Z" fill="white"/>
<path d="M115.914 131.136L110.814 128.856L112.266 133.914C112.266 133.914 115.506 134.646 116.916 133.02L115.914 131.136Z" fill="#FFB573"/>
<path d="M134.706 101.814C134.94 103.584 135.126 105.366 135.336 107.136L135.876 112.476C136.068 114.276 136.212 116.034 136.38 117.816L136.602 120.486L136.662 121.158C136.662 121.224 136.662 121.5 136.662 121.692C136.662 121.884 136.662 122.106 136.662 122.292C136.572 123.055 136.33 123.792 135.948 124.458C135.33 125.485 134.514 126.378 133.548 127.086C132.738 127.697 131.879 128.241 130.98 128.712C129.299 129.58 127.552 130.313 125.754 130.902C123.996 131.502 122.232 132 120.462 132.444C118.692 132.888 116.922 133.254 115.092 133.536L114.492 130.986C116.142 130.44 117.828 129.882 119.466 129.252C121.104 128.622 122.742 128.004 124.314 127.29C125.861 126.613 127.361 125.831 128.802 124.95C129.466 124.549 130.097 124.093 130.686 123.588C131.148 123.214 131.533 122.753 131.82 122.232C131.882 122.118 131.915 121.99 131.916 121.86C131.916 121.86 131.916 121.86 131.916 121.812C131.916 121.764 131.916 121.812 131.916 121.68L131.82 121.02L131.436 118.362C131.202 116.562 130.938 114.816 130.722 113.04L130.044 107.718C129.852 105.918 129.63 104.166 129.444 102.384L134.706 101.814Z" fill="#FFB573"/>
<path d="M132.258 95.586C134.358 96.222 136.89 103.47 136.89 103.47L129.528 111.048C129.528 111.048 125.748 103.248 126.63 100.536C127.554 97.704 129.858 94.854 132.258 95.586Z" fill="#FF0055"/>
<path d="M106.596 129.906L108.036 134.07L112.266 133.914L110.814 128.856L106.596 129.906Z" fill="#FFB573"/>
<path d="M177.816 114.972C179.196 105.108 172.308 97.11 162.444 97.11H234.516C244.386 97.11 251.268 105.108 249.894 114.972H177.816Z" fill="#263238"/>
<path opacity="0.7" d="M177.816 114.972C179.196 105.108 172.308 97.11 162.444 97.11H234.516C244.386 97.11 251.268 105.108 249.894 114.972H177.816Z" fill="#FF0055"/>
<path d="M162.444 97.11H234.516C224.652 97.11 215.538 105.108 214.164 114.972L197.868 231.876C196.494 241.746 187.38 249.744 177.516 249.744H141.168C131.304 249.744 124.422 241.746 125.796 231.876L142.086 114.972C143.466 105.108 152.574 97.11 162.444 97.11Z" fill="#FF0055"/>
<path d="M162.138 231.876C160.764 241.746 167.646 249.744 177.516 249.744H105.438C95.574 249.744 88.692 241.746 90.066 231.876H162.138Z" fill="#263238"/>
<path opacity="0.7" d="M162.138 231.876C160.764 241.746 167.646 249.744 177.516 249.744H105.438C95.574 249.744 88.692 241.746 90.066 231.876H162.138Z" fill="#FF0055"/>
<path opacity="0.4" d="M173.694 133.476H201.6C202.007 133.457 202.395 133.3 202.701 133.032C203.007 132.764 203.213 132.4 203.286 132C203.318 131.816 203.309 131.627 203.259 131.448C203.21 131.268 203.121 131.101 202.999 130.959C202.878 130.818 202.726 130.705 202.556 130.628C202.386 130.552 202.201 130.514 202.014 130.518H174.108C173.699 130.531 173.307 130.686 172.999 130.956C172.691 131.227 172.487 131.596 172.422 132C172.39 132.184 172.399 132.372 172.449 132.552C172.498 132.731 172.587 132.898 172.709 133.039C172.831 133.18 172.982 133.293 173.152 133.368C173.323 133.444 173.508 133.481 173.694 133.476Z" fill="white"/>
<path opacity="0.4" d="M172.926 138.978H193.44C193.848 138.965 194.24 138.811 194.547 138.542C194.855 138.273 195.059 137.905 195.126 137.502C195.158 137.318 195.149 137.13 195.099 136.95C195.05 136.771 194.961 136.604 194.839 136.463C194.717 136.322 194.566 136.209 194.396 136.134C194.225 136.058 194.04 136.021 193.854 136.026H173.34C172.931 136.037 172.539 136.191 172.231 136.461C171.924 136.73 171.719 137.098 171.654 137.502C171.622 137.686 171.631 137.874 171.681 138.054C171.73 138.233 171.819 138.4 171.941 138.541C172.062 138.682 172.214 138.795 172.384 138.87C172.555 138.946 172.74 138.983 172.926 138.978Z" fill="white"/>
<path opacity="0.4" d="M161.355 139.848C165.215 136.247 165.804 130.606 162.671 127.247C159.538 123.889 153.87 124.085 150.01 127.686C146.15 131.287 145.56 136.928 148.693 140.287C151.826 143.645 157.495 143.449 161.355 139.848Z" fill="white"/>
<path d="M147.726 133.8C147.533 135.08 147.682 136.388 148.158 137.592C148.676 138.858 149.568 139.936 150.715 140.682C151.863 141.427 153.211 141.804 154.578 141.762C156.083 141.726 157.558 141.329 158.877 140.603C160.196 139.877 161.32 138.844 162.156 137.592C162.938 136.46 163.447 135.162 163.644 133.8C164.244 129.408 161.19 125.844 156.792 125.844C154.591 125.907 152.481 126.736 150.826 128.189C149.171 129.641 148.074 131.626 147.726 133.8Z" fill="white"/>
<path opacity="0.4" d="M149.892 136.8C150.289 137.771 150.973 138.597 151.852 139.169C152.731 139.74 153.764 140.03 154.812 139.998C155.968 139.971 157.1 139.667 158.113 139.11C159.126 138.553 159.99 137.761 160.632 136.8C159.137 135.721 157.334 135.151 155.49 135.174C153.51 135.191 151.573 135.753 149.892 136.8Z" fill="#263238"/>
<path opacity="0.4" d="M153.234 131.82C153.173 132.159 153.189 132.507 153.28 132.839C153.37 133.172 153.534 133.479 153.759 133.74C153.984 134.001 154.264 134.209 154.579 134.348C154.894 134.487 155.236 134.554 155.58 134.544C156.333 134.522 157.054 134.238 157.62 133.741C158.185 133.243 158.559 132.564 158.676 131.82C158.737 131.482 158.722 131.134 158.631 130.803C158.541 130.471 158.377 130.164 158.153 129.904C157.929 129.644 157.65 129.436 157.335 129.298C157.021 129.159 156.68 129.092 156.336 129.102C155.584 129.123 154.862 129.406 154.296 129.902C153.729 130.399 153.354 131.077 153.234 131.82Z" fill="#263238"/>
<path opacity="0.4" d="M170.346 157.518H179.76C180.169 157.505 180.56 157.351 180.868 157.082C181.175 156.813 181.38 156.445 181.446 156.042C181.478 155.858 181.469 155.67 181.419 155.49C181.37 155.311 181.281 155.144 181.159 155.003C181.038 154.862 180.886 154.749 180.716 154.674C180.545 154.598 180.36 154.561 180.174 154.566H170.754C170.346 154.578 169.955 154.732 169.648 155.001C169.341 155.271 169.138 155.639 169.074 156.042C169.042 156.226 169.051 156.414 169.101 156.594C169.15 156.773 169.239 156.94 169.361 157.081C169.483 157.222 169.634 157.335 169.804 157.41C169.975 157.486 170.16 157.523 170.346 157.518Z" fill="white"/>
<path opacity="0.4" d="M185.442 157.518H198.894C199.303 157.505 199.694 157.351 200.002 157.082C200.309 156.813 200.514 156.445 200.58 156.042C200.613 155.858 200.605 155.669 200.556 155.489C200.507 155.309 200.418 155.142 200.296 155.001C200.174 154.859 200.022 154.747 199.851 154.672C199.68 154.596 199.495 154.56 199.308 154.566H185.856C185.447 154.577 185.055 154.731 184.747 155.001C184.44 155.27 184.236 155.638 184.17 156.042C184.138 156.226 184.147 156.414 184.197 156.594C184.246 156.773 184.335 156.94 184.457 157.081C184.579 157.222 184.73 157.335 184.9 157.41C185.071 157.486 185.256 157.523 185.442 157.518Z" fill="white"/>
<path opacity="0.4" d="M169.578 163.026H192.636C193.045 163.013 193.437 162.858 193.745 162.588C194.053 162.317 194.257 161.948 194.322 161.544C194.354 161.36 194.345 161.172 194.295 160.992C194.246 160.813 194.157 160.646 194.035 160.505C193.913 160.364 193.762 160.251 193.592 160.176C193.421 160.1 193.236 160.063 193.05 160.068H169.986C169.578 160.082 169.188 160.237 168.882 160.506C168.576 160.775 168.372 161.142 168.306 161.544C168.273 161.728 168.281 161.917 168.33 162.098C168.38 162.278 168.468 162.445 168.59 162.587C168.712 162.729 168.864 162.842 169.034 162.918C169.205 162.994 169.391 163.031 169.578 163.026Z" fill="white"/>
<path opacity="0.4" d="M158.006 163.892C161.866 160.292 162.456 154.65 159.323 151.292C156.19 147.933 150.521 148.13 146.661 151.73C142.801 155.331 142.212 160.973 145.345 164.331C148.478 167.69 154.146 167.493 158.006 163.892Z" fill="white"/>
<path d="M144.372 157.8C144.181 159.08 144.332 160.389 144.81 161.592C145.323 162.857 146.21 163.935 147.351 164.684C148.493 165.432 149.835 165.814 151.2 165.78C152.705 165.745 154.18 165.348 155.499 164.622C156.818 163.896 157.943 162.863 158.778 161.61C159.565 160.48 160.077 159.181 160.272 157.818C160.872 153.426 157.818 149.862 153.42 149.862C151.225 149.928 149.121 150.757 147.47 152.205C145.819 153.654 144.724 155.632 144.372 157.8Z" fill="white"/>
<path opacity="0.4" d="M146.538 160.86C146.936 161.831 147.621 162.658 148.501 163.229C149.381 163.801 150.415 164.09 151.464 164.058C152.619 164.03 153.75 163.725 154.761 163.169C155.773 162.612 156.637 161.82 157.278 160.86C155.783 159.78 153.98 159.21 152.136 159.234C150.156 159.253 148.22 159.815 146.538 160.86Z" fill="#263238"/>
<path opacity="0.4" d="M149.886 155.862C149.825 156.2 149.841 156.548 149.931 156.88C150.022 157.212 150.185 157.519 150.409 157.78C150.633 158.041 150.912 158.248 151.227 158.388C151.541 158.527 151.882 158.595 152.226 158.586C152.979 158.565 153.702 158.281 154.268 157.783C154.835 157.286 155.209 156.606 155.328 155.862C155.389 155.524 155.373 155.176 155.283 154.845C155.193 154.513 155.029 154.206 154.805 153.946C154.581 153.686 154.301 153.478 153.987 153.34C153.673 153.201 153.331 153.134 152.988 153.144C152.235 153.165 151.514 153.448 150.947 153.944C150.381 154.441 150.006 155.119 149.886 155.862Z" fill="#263238"/>
<path opacity="0.4" d="M166.992 181.566H183.39C183.8 181.553 184.192 181.398 184.499 181.128C184.807 180.857 185.011 180.488 185.076 180.084C185.108 179.9 185.099 179.712 185.049 179.532C185 179.353 184.911 179.186 184.789 179.045C184.668 178.904 184.516 178.791 184.346 178.716C184.175 178.64 183.99 178.603 183.804 178.608H167.4C166.992 178.621 166.6 178.775 166.293 179.044C165.985 179.313 165.781 179.681 165.714 180.084C165.681 180.269 165.69 180.458 165.739 180.639C165.788 180.82 165.878 180.987 166 181.129C166.123 181.271 166.275 181.384 166.447 181.46C166.618 181.535 166.805 181.572 166.992 181.566Z" fill="white"/>
<path opacity="0.4" d="M166.2 187.068H191.766C192.173 187.049 192.562 186.891 192.868 186.622C193.175 186.353 193.38 185.987 193.452 185.586C193.483 185.402 193.473 185.214 193.423 185.034C193.372 184.854 193.283 184.688 193.161 184.547C193.039 184.406 192.887 184.294 192.716 184.218C192.546 184.143 192.36 184.106 192.174 184.11H166.614C166.205 184.123 165.814 184.277 165.507 184.546C165.199 184.815 164.995 185.183 164.928 185.586C164.895 185.77 164.903 185.959 164.952 186.14C165.002 186.32 165.09 186.487 165.212 186.629C165.334 186.771 165.486 186.884 165.657 186.96C165.827 187.036 166.013 187.073 166.2 187.068Z" fill="white"/>
<path opacity="0.2" d="M138.234 210.492H177.378C177.951 210.473 178.501 210.256 178.932 209.877C179.363 209.499 179.649 208.982 179.742 208.416C179.788 208.157 179.775 207.891 179.705 207.638C179.635 207.384 179.509 207.15 179.336 206.951C179.164 206.753 178.949 206.596 178.708 206.491C178.466 206.386 178.205 206.337 177.942 206.346H138.81C138.237 206.363 137.689 206.578 137.258 206.956C136.828 207.334 136.543 207.85 136.452 208.416C136.406 208.674 136.417 208.939 136.486 209.192C136.555 209.444 136.679 209.679 136.85 209.878C137.02 210.076 137.233 210.235 137.472 210.341C137.712 210.447 137.972 210.499 138.234 210.492Z" fill="white"/>
<path opacity="0.2" d="M137.16 218.208H165.924C166.497 218.19 167.046 217.973 167.476 217.594C167.907 217.215 168.192 216.698 168.282 216.132C168.328 215.873 168.315 215.607 168.245 215.354C168.175 215.1 168.049 214.866 167.876 214.667C167.704 214.469 167.489 214.312 167.248 214.207C167.007 214.102 166.745 214.053 166.482 214.062H137.736C137.163 214.079 136.614 214.295 136.183 214.673C135.752 215.051 135.465 215.566 135.372 216.132C135.332 216.389 135.349 216.652 135.42 216.903C135.492 217.153 135.617 217.385 135.787 217.583C135.957 217.78 136.168 217.938 136.405 218.046C136.642 218.154 136.9 218.209 137.16 218.208Z" fill="white"/>
<path opacity="0.2" d="M151.842 116.046H198.516C198.809 116.033 199.089 115.919 199.308 115.723C199.526 115.527 199.671 115.262 199.716 114.972C199.739 114.839 199.733 114.702 199.696 114.572C199.66 114.442 199.596 114.321 199.507 114.219C199.419 114.117 199.309 114.035 199.185 113.981C199.061 113.927 198.927 113.9 198.792 113.904H152.142C151.85 113.919 151.573 114.033 151.354 114.227C151.136 114.421 150.991 114.684 150.942 114.972C150.919 115.103 150.926 115.238 150.96 115.367C150.995 115.496 151.057 115.615 151.143 115.718C151.229 115.82 151.336 115.902 151.456 115.959C151.577 116.016 151.709 116.045 151.842 116.046Z" fill="white"/>
<path opacity="0.4" d="M154.656 187.937C158.516 184.336 159.105 178.694 155.972 175.336C152.839 171.977 147.17 172.174 143.31 175.775C139.45 179.375 138.861 185.017 141.994 188.375C145.127 191.734 150.796 191.537 154.656 187.937Z" fill="white"/>
<path d="M141 181.866C140.807 183.146 140.956 184.454 141.432 185.658C141.951 186.923 142.844 187.999 143.991 188.743C145.139 189.487 146.485 189.863 147.852 189.822C149.357 189.786 150.83 189.39 152.149 188.665C153.468 187.94 154.593 186.909 155.43 185.658C156.211 184.525 156.72 183.228 156.918 181.866C157.518 177.468 154.464 173.904 150.066 173.904C147.864 173.967 145.753 174.797 144.098 176.251C142.443 177.705 141.347 179.691 141 181.866Z" fill="white"/>
<path opacity="0.4" d="M143.19 184.908C143.588 185.879 144.273 186.706 145.153 187.277C146.033 187.849 147.067 188.138 148.116 188.106C149.27 188.078 150.401 187.773 151.413 187.217C152.425 186.66 153.288 185.868 153.93 184.908C152.436 183.826 150.632 183.256 148.788 183.282C146.807 183.296 144.87 183.859 143.19 184.908Z" fill="#263238"/>
<path opacity="0.4" d="M146.532 179.91C146.472 180.249 146.488 180.596 146.58 180.928C146.671 181.259 146.835 181.566 147.059 181.826C147.284 182.086 147.564 182.293 147.878 182.432C148.193 182.571 148.534 182.638 148.878 182.628C149.63 182.607 150.351 182.323 150.916 181.827C151.481 181.331 151.855 180.653 151.974 179.91C152.035 179.572 152.019 179.224 151.929 178.892C151.838 178.56 151.675 178.253 151.451 177.992C151.227 177.731 150.948 177.524 150.633 177.384C150.319 177.245 149.978 177.177 149.634 177.186C148.88 177.207 148.158 177.491 147.592 177.989C147.025 178.486 146.65 179.166 146.532 179.91Z" fill="#263238"/>
</svg>
