<svg width="18" height="18" viewBox="0 0 18 18" fill="none" xmlns="http://www.w3.org/2000/svg">
<g clip-path="url(#clip0_600_1378)">
<path d="M7.16475 10.7977C7.671 11.2927 8.3355 11.5402 9 11.5402C9.6645 11.5402 10.329 11.2927 10.8352 10.7977L12.7118 8.96174C13.7032 7.97024 14.25 6.65174 14.25 5.24924C14.25 3.84674 13.7032 2.52899 12.7118 1.53674C11.721 0.545237 10.4025 -0.000762939 9 -0.000762939C7.5975 -0.000762939 6.279 0.545237 5.2875 1.53674C3.24075 3.58349 3.24075 6.91424 5.2935 8.96699L7.16475 10.797V10.7977ZM6.348 2.59799C7.056 1.88999 7.998 1.49999 9 1.49999C10.002 1.49999 10.9432 1.88999 11.6512 2.59799C12.3593 3.30599 12.75 4.24799 12.75 5.24999C12.75 6.25199 12.3593 7.19324 11.6573 7.89599L9.78675 9.72599C9.35325 10.149 8.64675 10.149 8.21325 9.72599L6.348 7.90199C4.88625 6.43949 4.88625 4.05974 6.348 2.59799ZM6.75 5.24249C6.75 3.99974 7.75725 2.99249 9 2.99249C10.2428 2.99249 11.25 3.99974 11.25 5.24249C11.25 6.48524 10.2428 7.49249 9 7.49249C7.75725 7.49249 6.75 6.48524 6.75 5.24249ZM18 12.5752C18 12.8392 17.8612 13.083 17.6362 13.218L10.2405 17.6557C9.858 17.8852 9.429 18 9.00075 18C8.5725 18 8.14275 17.8852 7.761 17.6557L0.36375 13.2187C0.138 13.083 0 12.8392 0 12.576C0 12.3127 0.13875 12.0682 0.36375 11.9332L3.5355 10.0305C3.89175 9.81674 4.35225 9.93224 4.5645 10.2877C4.7775 10.6432 4.66275 11.1037 4.30725 11.3167L2.20725 12.5767L8.532 16.3717C8.82075 16.5442 9.17925 16.5442 9.468 16.3717L15.7927 12.5767L13.6927 11.3167C13.3372 11.1037 13.2225 10.6432 13.4355 10.2877C13.6485 9.93224 14.1082 9.81674 14.4645 10.0305L17.6362 11.9332C17.862 12.069 18 12.312 18 12.5752Z" fill="black"/>
</g>
<defs>
<clipPath id="clip0_600_1378">
<rect width="18" height="18" fill="white"/>
</clipPath>
</defs>
</svg>
