<svg width="300" height="300" viewBox="0 0 300 300" fill="none" xmlns="http://www.w3.org/2000/svg">
<path d="M241.242 232.542H262.338V225.828H241.242V232.542Z" fill="#EBEBEB"/>
<path d="M189.894 166.308H210.99V159.594H189.894V166.308Z" fill="#EBEBEB"/>
<path d="M253.008 241.002L263.628 240.828L268.878 240.756H274.104L273.828 241.026V234.312L274.128 234.612L263.58 234.576L258.306 234.522L253.032 234.456L253.176 234.312L253.008 241.002ZM253.008 241.002L252.87 234.288V234.15H253.014L258.288 234.084L263.562 234.03L274.11 233.988H274.41V234.288V241.002V241.278H274.14H268.818L263.52 241.206L253.008 241.002Z" fill="#EBEBEB"/>
<path d="M119.094 77.322L129.714 77.148L134.964 77.076L140.19 77.046L139.92 77.322V70.608L140.22 70.908L129.672 70.866L124.398 70.818L119.124 70.752L119.268 70.608L119.094 77.322ZM119.094 77.322L118.956 70.608V70.47H119.1L124.374 70.404L129.648 70.356L140.196 70.314H140.496V70.614V77.328V77.604H140.22L134.898 77.574L129.6 77.502L119.094 77.322Z" fill="#EBEBEB"/>
<path d="M130.866 85.8L141.486 85.626L146.73 85.554H151.956L151.686 85.83L151.656 79.116L151.956 79.416L141.414 79.374L136.14 79.326L130.866 79.26L131.004 79.116L130.866 85.8ZM130.866 85.8L130.722 79.086V78.948H130.872L136.146 78.882L141.42 78.834L151.962 78.792H152.268V79.092V85.806V86.082H151.992L146.676 86.052L141.372 85.98L130.866 85.8Z" fill="#EBEBEB"/>
<path d="M142.584 77.322H163.68V70.608H142.584V77.322Z" fill="#EBEBEB"/>
<path d="M25.8959 241.008H46.9919V234.294H25.8959V241.008Z" fill="#EBEBEB"/>
<path d="M37.6619 33.678H58.7579V26.964L37.6619 26.964V33.678Z" fill="#EBEBEB"/>
<path d="M25.896 42.138L36.516 41.964L41.766 41.892H46.992L46.716 42.162V35.448L47.016 35.748L36.468 35.706L31.2 35.634L25.926 35.568L26.04 35.4L25.896 42.138ZM25.896 42.138L25.752 35.4V35.262H25.896L31.2 35.22L36.474 35.166L47.022 35.124H47.322V35.4V42.114V42.39H47.052H41.73L36.432 42.318L25.896 42.138Z" fill="#EBEBEB"/>
<path d="M241.242 33.672L251.862 33.498L257.112 33.426H262.338L262.062 33.696V26.982L262.362 27.282L251.814 27.24L246.54 27.192L241.266 27.126L241.41 26.982L241.242 33.672ZM241.242 33.672L241.098 26.958V26.82H241.242L246.516 26.754L251.79 26.7L262.338 26.658H262.638V26.958L262.608 33.672V33.948H262.338H257.016L251.718 33.876L241.242 33.672Z" fill="#EBEBEB"/>
<path d="M188.262 25.89V142.89H264.3V25.89H188.262ZM261.492 140.076H191.064V28.698H261.492V140.076Z" fill="#EBEBEB"/>
<path d="M261.492 28.698H191.064V140.076H261.492V28.698Z" fill="white"/>
<path d="M191.064 85.788L261.492 85.788V82.98L191.064 82.98V85.788Z" fill="#EBEBEB"/>
<path d="M183.096 150.93H269.466V142.878H183.096V150.93Z" fill="#DBDBDB"/>
<path d="M191.064 28.698H261.492V100.752H191.064V28.698ZM258.894 31.296H193.662V98.154H258.894V31.296Z" fill="#DBDBDB"/>
<path d="M239.016 28.698H237.612V98.16H239.016V28.698Z" fill="#DBDBDB"/>
<path d="M214.944 28.698H213.54V98.16H214.944V28.698Z" fill="#DBDBDB"/>
<path d="M35.7059 25.89V142.89H111.744V25.89H35.7059ZM108.942 140.076H38.5139V28.698H108.942V140.076Z" fill="#EBEBEB"/>
<path d="M108.942 28.698H38.5139V140.076H108.942V28.698Z" fill="white"/>
<path d="M38.5139 85.788L108.942 85.788V82.98L38.5139 82.98V85.788Z" fill="#EBEBEB"/>
<path d="M30.5339 150.93H116.904V142.878H30.5339V150.93Z" fill="#DBDBDB"/>
<path d="M38.5079 28.698H108.936V100.752H38.5079V28.698ZM106.308 31.296H41.1059V98.154H106.338L106.308 31.296Z" fill="#DBDBDB"/>
<path d="M86.4599 28.698H85.0559V98.16H86.4599V28.698Z" fill="#DBDBDB"/>
<path d="M62.394 28.698H60.99V98.16H62.394V28.698Z" fill="#DBDBDB"/>
<path d="M24.87 266.976L56.154 266.832L87.438 266.778L150 266.676L212.562 266.778L243.846 266.826L275.13 266.976L243.846 267.12L212.562 267.174L150 267.276L87.438 267.174L56.154 267.12L24.87 266.976Z" fill="#263238"/>
<path d="M274.758 178.854H198.624V189.66H274.758V178.854Z" fill="#455A64"/>
<path d="M272.946 189.66H200.442V193.17H272.946V189.66Z" fill="#455A64"/>
<path d="M272.946 189.66H200.442V190.824H272.946V189.66Z" fill="#263238"/>
<path d="M201.156 267.276H198.258L206.694 193.164H214.092L201.156 267.276Z" fill="#455A64"/>
<path d="M214.092 193.17L213.228 198.126H206.13L206.694 193.17H214.092Z" fill="#263238"/>
<path d="M272.232 267.276H275.13L266.694 193.164H259.29L272.232 267.276Z" fill="#455A64"/>
<path d="M259.29 193.17L260.16 198.126H267.252L266.688 193.17H259.29Z" fill="#263238"/>
<path d="M255.354 222.642C254.769 224.782 254.381 226.971 254.196 229.182C254.256 229.29 254.244 229.692 254.196 229.584C254.196 229.944 253.638 229.878 253.638 229.524C253.638 229.29 253.638 229.062 253.638 228.834C252.36 227.25 250.506 226.248 249.006 224.868C247.799 223.786 246.92 222.387 246.468 220.83C245.226 216.54 246.39 211.998 244.896 207.726C243.606 204.042 241.296 200.838 239.334 197.526C237.27 193.992 235.734 190.284 235.59 186.126C235.47 182.958 235.848 178.734 238.26 176.364C240.816 173.844 243.99 175.734 245.946 177.978C251.622 184.494 254.25 192.726 255.312 201.144C255.912 205.8 256.512 210.492 256.362 215.196C256.276 217.705 255.938 220.2 255.354 222.642Z" fill="#FF0055"/>
<path d="M254.226 230.892C254.534 226.495 254.482 222.08 254.07 217.692C254.07 217.692 254.07 217.662 254.07 217.644C254.142 214.074 254.424 210.522 254.286 206.946C254.114 203.084 253.588 199.246 252.714 195.48C252.716 195.475 252.717 195.469 252.717 195.463C252.716 195.457 252.714 195.451 252.711 195.446C252.708 195.441 252.703 195.437 252.698 195.434C252.693 195.431 252.687 195.43 252.681 195.43C252.675 195.43 252.669 195.431 252.664 195.434C252.659 195.437 252.654 195.441 252.651 195.446C252.648 195.451 252.646 195.457 252.645 195.463C252.645 195.469 252.646 195.475 252.648 195.48C253.341 199.182 253.756 202.93 253.89 206.694C253.962 208.694 253.946 210.71 253.842 212.742C253.806 213.396 253.746 214.056 253.698 214.716C252.215 204.699 248.595 195.119 243.084 186.624C243.012 186.51 242.802 186.624 242.874 186.756C246.82 193.216 249.742 200.247 251.538 207.6C248.808 202.542 244.68 198.384 241.62 193.524C241.62 193.524 241.56 193.524 241.578 193.554C244.326 198.954 248.862 203.232 251.778 208.554C252.276 210.726 252.69 212.922 252.978 215.124C253.387 218.151 253.607 221.201 253.638 224.256C251.976 221.148 250.248 218.178 248.886 214.89C248.85 214.8 248.724 214.86 248.754 214.95C249.912 218.364 251.466 222.042 253.644 224.952C253.644 227.112 253.59 229.278 253.464 231.432C253.128 237.198 252.144 242.88 251.664 248.628C251.66 248.663 251.67 248.698 251.692 248.726C251.714 248.753 251.746 248.771 251.781 248.775C251.816 248.779 251.851 248.769 251.879 248.747C251.906 248.725 251.924 248.693 251.928 248.658C253.093 242.794 253.86 236.859 254.226 230.892Z" fill="#263238"/>
<path d="M248.106 186.45C248.106 186.408 248.022 186.45 248.04 186.48C249.09 189.39 249.69 192.336 250.44 195.318C250.445 195.347 250.461 195.372 250.484 195.389C250.508 195.406 250.537 195.413 250.566 195.408C250.595 195.403 250.62 195.387 250.637 195.364C250.654 195.34 250.661 195.311 250.656 195.282C250.356 192.258 249.276 189.24 248.106 186.45Z" fill="#263238"/>
<path d="M274.83 198.648C274.138 200.356 273.336 202.017 272.43 203.622C270.534 207.06 268.56 210.222 268.23 214.224C268.17 216.016 267.914 217.797 267.468 219.534C266.97 221.017 266.257 222.418 265.35 223.692C263.298 226.692 260.73 229.266 258.822 232.368C256.844 235.608 255.382 239.136 254.49 242.826C254.442 243.024 254.124 242.97 254.172 242.772C254.172 242.772 254.172 242.742 254.172 242.724C254.169 242.717 254.168 242.71 254.168 242.703C254.168 242.696 254.169 242.689 254.172 242.682C253.872 234.09 254.556 225.426 257.172 217.194C258.329 213.573 259.72 210.032 261.336 206.592C262.74 203.592 264.486 200.736 266.952 198.51C268.554 197.07 272.022 194.31 274.302 195.78C275.346 196.476 275.262 197.574 274.83 198.648Z" fill="#FF0055"/>
<path d="M266.196 218.13C264.683 220.631 263.016 223.036 261.204 225.33C260.37 226.416 259.524 227.496 258.696 228.582C258.3 229.098 257.862 229.608 257.496 230.16L258.18 227.4C259.29 223.062 260.358 218.682 262.008 214.506C263.7 210.462 265.694 206.551 267.972 202.806C268.032 202.71 267.87 202.638 267.816 202.734C266.016 205.734 264.156 208.698 262.626 211.848C261.786 213.603 261.05 215.406 260.424 217.248C261.124 213.329 262.104 209.465 263.358 205.686C263.358 205.656 263.322 205.632 263.304 205.686C261.667 209.502 260.641 213.551 260.262 217.686C259.89 218.802 259.546 219.928 259.23 221.064C257.874 225.864 256.686 230.73 255.588 235.608C255.567 232.403 255.844 229.203 256.416 226.05C256.412 226.038 256.404 226.028 256.394 226.02C256.384 226.013 256.372 226.009 256.359 226.009C256.346 226.009 256.334 226.013 256.324 226.02C256.314 226.028 256.306 226.038 256.302 226.05C255.464 229.338 255.184 232.743 255.474 236.124C255.054 237.978 254.652 239.832 254.274 241.692C253.428 245.652 252.39 249.684 251.874 253.692C251.872 253.702 251.872 253.713 251.874 253.723C251.876 253.733 251.88 253.743 251.886 253.752C251.892 253.76 251.9 253.768 251.908 253.773C251.917 253.779 251.927 253.783 251.937 253.785C251.947 253.787 251.958 253.787 251.968 253.785C251.978 253.783 251.988 253.779 251.997 253.773C252.005 253.767 252.013 253.759 252.018 253.751C252.024 253.742 252.028 253.732 252.03 253.722C252.63 251.55 252.978 249.306 253.458 247.122C253.938 244.938 254.442 242.724 254.952 240.522C255.696 237.324 256.482 234.132 257.274 230.922C257.808 229.758 258.84 228.72 259.608 227.742C260.454 226.668 261.3 225.588 262.122 224.496C263.668 222.476 265.052 220.337 266.262 218.1C266.298 218.118 266.22 218.082 266.196 218.13Z" fill="#263238"/>
<path d="M266.562 214.452C264.669 216.867 263.031 219.471 261.672 222.222C261.672 222.252 261.714 222.294 261.732 222.258C263.376 219.678 264.996 217.08 266.64 214.5C266.664 214.458 266.592 214.416 266.562 214.452Z" fill="#263238"/>
<path d="M229.98 206.796C231.096 208.716 232.38 210.996 231.888 213.318C231.582 214.776 230.514 215.958 230.322 217.446C229.89 220.728 233.166 222.9 235.53 224.448C241.434 228.324 249.522 231.774 250.596 239.682C250.638 239.958 251.124 239.892 251.088 239.616C251.091 239.598 251.091 239.58 251.088 239.562C251.088 239.562 251.118 239.562 251.118 239.52C251.891 235.527 251.852 231.42 251.004 227.442C250.128 223.368 248.346 219.702 246.246 216.126C242.694 210.066 238.938 203.862 233.568 199.218C232.08 197.94 229.038 195.618 227.85 198.528C226.662 201.438 228.6 204.456 229.98 206.796Z" fill="#FF0055"/>
<path d="M235.38 219.642C239.292 223.878 245.514 226.242 248.88 230.994C247 223.774 243.446 217.097 238.506 211.506C238.492 211.492 238.481 211.475 238.473 211.456C238.465 211.438 238.461 211.418 238.461 211.398C238.461 211.378 238.465 211.358 238.473 211.34C238.481 211.321 238.492 211.304 238.506 211.29C238.52 211.276 238.537 211.265 238.556 211.257C238.574 211.249 238.594 211.245 238.614 211.245C238.634 211.245 238.654 211.249 238.672 211.257C238.691 211.265 238.708 211.276 238.722 211.29C242.322 214.789 245.202 218.96 247.2 223.566C246.269 220.349 245.046 217.224 243.546 214.23C243.537 214.207 243.536 214.182 243.544 214.159C243.552 214.136 243.568 214.117 243.589 214.104C243.61 214.092 243.635 214.087 243.659 214.092C243.683 214.096 243.705 214.109 243.72 214.128C245.578 217.398 246.906 220.942 247.656 224.628C252.096 235.368 252.504 247.968 251.574 259.29C251.574 259.452 251.316 259.458 251.322 259.29C251.574 250.368 251.43 241.29 249.294 232.572L249.15 232.032C245.49 226.926 239.298 224.556 235.314 219.708C235.272 219.66 235.338 219.6 235.38 219.642Z" fill="#263238"/>
<path d="M234.474 216C236.526 217.884 238.548 219.816 240.606 221.694C240.606 221.694 240.606 221.754 240.576 221.736C238.249 220.167 236.155 218.279 234.354 216.126C234.344 216.109 234.339 216.089 234.341 216.069C234.343 216.05 234.352 216.031 234.366 216.017C234.379 216.002 234.397 215.993 234.417 215.99C234.437 215.987 234.457 215.99 234.474 216Z" fill="#263238"/>
<path d="M234.15 207.84C235.967 210.817 238.022 213.642 240.294 216.288C240.324 216.324 240.294 216.378 240.24 216.342C237.69 213.916 235.59 211.058 234.036 207.9C234.032 207.886 234.033 207.87 234.039 207.856C234.045 207.843 234.056 207.831 234.069 207.824C234.082 207.817 234.097 207.815 234.112 207.818C234.127 207.821 234.14 207.829 234.15 207.84Z" fill="#263238"/>
<path d="M243.396 267.276H261.384L258.96 243.072H246.168L243.396 267.276Z" fill="#455A64"/>
<path d="M245.712 247.008H259.356L258.96 243.072H246.162L245.712 247.008Z" fill="#263238"/>
<path d="M243.96 244.254H260.82V240.39H243.96V244.254Z" fill="#455A64"/>
<path d="M48.24 102.246H45V264.036H48.24V102.246Z" fill="#263238"/>
<path d="M101.87 45.034L24.87 122.034L27.161 124.325L104.161 47.3251L101.87 45.034Z" fill="#263238"/>
<path d="M29.052 264.036V267.276H64.182V264.036H29.052Z" fill="#263238"/>
<path d="M104.49 56.976L115.35 46.776L105.126 38.472L96.99 46.116L104.49 56.976Z" fill="#FF0055"/>
<path opacity="0.1" d="M115.35 46.776L104.49 56.976L101.508 52.656L110.814 43.098L115.35 46.776Z" fill="black"/>
<path d="M103.368 74.01L132.672 46.47L118.674 38.934L96.714 59.574L103.368 74.01Z" fill="#FF0055"/>
<path opacity="0.6" d="M217.686 161.136C217.686 161.136 207.276 156.336 207.276 149.91C207.276 143.484 220.776 139.344 220.776 134.31C220.776 129.276 214.89 126.33 214.89 126.33C214.89 126.33 224.19 129.51 224.19 135.864C224.19 142.218 215.286 146.532 214.44 150.6C213.252 156.192 217.686 161.136 217.686 161.136Z" fill="#DBDBDB"/>
<path opacity="0.6" d="M217.2 161.136C217.2 161.136 227.616 157.368 227.616 152.31C227.616 147.252 214.08 144 214.08 140.052C214.08 136.104 219.972 133.8 219.972 133.8C219.972 133.8 210.666 136.296 210.666 141.294C210.666 146.292 220.866 149.73 221.622 153.786C222.378 157.842 217.2 161.136 217.2 161.136Z" fill="#DBDBDB"/>
<path d="M222.528 177.306H212.622V178.854H222.528V177.306Z" fill="#FF0055"/>
<path opacity="0.1" d="M222.528 177.306H212.622V178.326H222.528V177.306Z" fill="black"/>
<path d="M234.288 173.148C233.686 174.042 232.84 174.743 231.851 175.169C230.861 175.594 229.77 175.726 228.708 175.548C228.365 175.485 228.03 175.388 227.706 175.26C227.212 175.066 226.741 174.819 226.302 174.522L227.562 172.656C227.796 172.821 228.045 172.964 228.306 173.082C229.026 173.414 229.841 173.476 230.603 173.256C231.365 173.035 232.021 172.548 232.452 171.882C233.808 169.974 234.294 165.618 232.92 163.938C232.83 163.818 232.428 163.62 230.832 163.938C230.538 164.004 230.232 164.076 229.83 164.178C229.536 164.277 229.232 164.344 228.924 164.376L228.882 163.254L228.774 162.138C228.876 162.138 229.038 162.072 229.248 162.012C229.985 161.798 230.737 161.641 231.498 161.544C232.698 161.424 233.898 161.544 234.66 162.492C236.892 165.222 235.986 170.76 234.288 173.148Z" fill="#FF0055"/>
<path opacity="0.1" d="M227.562 172.644C227.796 172.809 228.045 172.952 228.306 173.07L227.706 175.248C227.212 175.054 226.741 174.807 226.302 174.51L227.562 172.644Z" fill="black"/>
<path opacity="0.1" d="M231.498 161.538L230.832 163.938C230.538 164.004 230.232 164.076 229.83 164.178C229.536 164.277 229.232 164.344 228.924 164.376L228.882 163.254L228.774 162.138C228.876 162.138 229.038 162.072 229.248 162.012C229.984 161.795 230.737 161.637 231.498 161.538Z" fill="black"/>
<path d="M204.402 158.622C204.402 158.622 204.486 159.36 204.654 160.524C204.684 160.698 204.708 160.896 204.738 161.088C204.858 161.886 205.014 162.834 205.188 163.848C205.192 163.908 205.192 163.968 205.188 164.028C205.452 165.486 205.788 167.07 206.142 168.57C206.142 168.636 206.184 168.702 206.196 168.762C206.298 169.164 206.406 169.56 206.514 169.962C206.622 170.364 206.742 170.718 206.856 171.072C207.069 171.725 207.321 172.364 207.612 172.986C209.664 177.234 212.532 177.708 214.308 177.708H220.8C222.6 177.708 225.444 177.234 227.49 172.986L227.676 172.572C227.724 172.47 227.766 172.362 227.808 172.254C227.85 172.146 227.898 172.032 227.94 171.918L228.03 171.678C228.456 170.472 228.811 169.242 229.092 167.994C229.109 167.943 229.123 167.891 229.134 167.838C229.134 167.838 229.134 167.802 229.134 167.778C229.26 167.25 229.374 166.716 229.482 166.188C229.668 165.324 229.836 164.466 229.974 163.656C230.034 163.284 230.1 162.918 230.16 162.57C230.16 162.468 230.19 162.378 230.208 162.282C230.244 162.048 230.286 161.82 230.316 161.598C230.346 161.376 230.376 161.172 230.406 160.998C230.436 160.824 230.46 160.602 230.49 160.398C230.646 159.324 230.724 158.646 230.724 158.646L204.402 158.622Z" fill="#FF0055"/>
<path opacity="0.1" d="M205.2 164.028C205.464 165.486 205.8 167.07 206.154 168.57C206.322 168.57 206.484 168.624 206.646 168.66C207.439 168.845 208.193 169.17 208.872 169.62C209.538 170.08 210.161 170.6 210.732 171.174C211.285 171.739 211.887 172.253 212.532 172.71C213.176 173.139 213.925 173.382 214.698 173.412C215.075 173.401 215.445 173.312 215.786 173.151C216.127 172.99 216.43 172.76 216.678 172.476C217.225 171.905 217.721 171.286 218.16 170.628C218.611 169.957 219.098 169.31 219.618 168.69C219.89 168.379 220.196 168.099 220.53 167.856C220.721 167.741 220.922 167.643 221.13 167.562C221.337 167.491 221.553 167.455 221.772 167.454C222.204 167.445 222.63 167.551 223.008 167.76C223.37 167.963 223.705 168.211 224.004 168.498C224.604 169.05 225.12 169.698 225.654 170.268C226.126 170.886 226.762 171.358 227.49 171.63C227.674 171.669 227.864 171.669 228.048 171.63C228.474 170.424 228.829 169.194 229.11 167.946C228.9 167.892 228.684 167.838 228.474 167.772C227.698 167.506 226.978 167.099 226.35 166.572C225.733 166.05 225.163 165.476 224.646 164.856C224.148 164.24 223.598 163.668 223.002 163.146C222.4 162.657 221.676 162.341 220.908 162.234C220.532 162.211 220.156 162.265 219.802 162.393C219.448 162.521 219.124 162.72 218.85 162.978C218.25 163.489 217.7 164.056 217.206 164.67C216.678 165.27 216.156 165.87 215.562 166.47C215.262 166.756 214.93 167.006 214.572 167.214C214.38 167.312 214.179 167.393 213.972 167.454C213.756 167.503 213.533 167.519 213.312 167.502C212.882 167.461 212.469 167.313 212.112 167.07C211.77 166.834 211.462 166.553 211.194 166.236C210.642 165.636 210.198 164.958 209.718 164.322C209.309 163.66 208.723 163.126 208.026 162.78C207.3 162.522 206.526 162.93 205.92 163.41C205.686 163.632 205.452 163.8 205.2 164.028Z" fill="black"/>
<path d="M205.2 163.848C205.204 163.908 205.204 163.968 205.2 164.028C205.434 163.824 205.668 163.632 205.908 163.428C206.508 162.948 207.288 162.54 208.014 162.798C208.711 163.144 209.297 163.678 209.706 164.34C210.186 164.976 210.63 165.654 211.182 166.254C211.45 166.571 211.758 166.852 212.1 167.088C212.457 167.331 212.87 167.479 213.3 167.52C213.521 167.537 213.744 167.521 213.96 167.472C214.167 167.411 214.368 167.33 214.56 167.232C214.918 167.024 215.25 166.774 215.55 166.488C216.15 165.924 216.666 165.288 217.194 164.688C217.688 164.074 218.238 163.507 218.838 162.996C219.112 162.738 219.436 162.539 219.79 162.411C220.144 162.283 220.52 162.229 220.896 162.252C221.664 162.359 222.388 162.675 222.99 163.164C223.586 163.686 224.136 164.258 224.634 164.874C225.151 165.494 225.721 166.068 226.338 166.59C226.966 167.117 227.686 167.524 228.462 167.79C228.672 167.856 228.888 167.91 229.098 167.964C229.115 167.913 229.129 167.861 229.14 167.808C228.936 167.748 228.726 167.688 228.54 167.61C227.063 167.016 225.791 166.005 224.88 164.7C224.383 164.057 223.824 163.464 223.212 162.93C222.567 162.397 221.789 162.051 220.962 161.928C220.538 161.895 220.111 161.949 219.709 162.088C219.306 162.226 218.936 162.445 218.622 162.732C218 163.255 217.428 163.833 216.912 164.46C216.384 165.06 215.88 165.66 215.316 166.23C214.752 166.8 214.08 167.262 213.342 167.172C212.967 167.119 212.606 166.992 212.281 166.798C211.955 166.604 211.672 166.348 211.446 166.044C210.918 165.444 210.462 164.802 209.964 164.166C209.506 163.471 208.862 162.92 208.104 162.576C207.693 162.45 207.25 162.476 206.856 162.648C206.477 162.808 206.125 163.024 205.812 163.29C205.59 163.476 205.392 163.656 205.2 163.848Z" fill="white"/>
<path d="M206.172 168.6C206.172 168.666 206.214 168.732 206.226 168.792L206.616 168.876C208.142 169.329 209.506 170.21 210.546 171.414C211.091 172.007 211.694 172.544 212.346 173.016C213.04 173.484 213.85 173.751 214.686 173.79C215.11 173.785 215.529 173.692 215.915 173.516C216.302 173.34 216.647 173.086 216.93 172.77C217.5 172.189 218.018 171.558 218.478 170.886C218.911 170.22 219.384 169.581 219.894 168.972C220.398 168.372 221.016 167.826 221.754 167.832C222.517 167.873 223.235 168.211 223.752 168.774C224.352 169.302 224.856 169.914 225.414 170.496C225.933 171.144 226.626 171.631 227.412 171.9C227.584 171.933 227.762 171.933 227.934 171.9L228.024 171.66C227.84 171.699 227.65 171.699 227.466 171.66C226.738 171.388 226.102 170.916 225.63 170.298C225.096 169.698 224.586 169.098 223.98 168.528C223.681 168.241 223.346 167.993 222.984 167.79C222.606 167.581 222.18 167.475 221.748 167.484C221.53 167.485 221.313 167.521 221.106 167.592C220.898 167.673 220.697 167.771 220.506 167.886C220.172 168.129 219.866 168.409 219.594 168.72C219.074 169.34 218.587 169.987 218.136 170.658C217.697 171.316 217.201 171.935 216.654 172.506C216.406 172.79 216.103 173.02 215.762 173.181C215.421 173.342 215.051 173.431 214.674 173.442C213.901 173.412 213.152 173.169 212.508 172.74C211.863 172.283 211.261 171.769 210.708 171.204C210.137 170.63 209.514 170.11 208.848 169.65C208.169 169.2 207.415 168.875 206.622 168.69C206.502 168.6 206.34 168.6 206.172 168.6Z" fill="white"/>
<path d="M101.334 230.034L55.5179 266.976H58.0979L111.012 230.034H101.334Z" fill="#C7C7C7"/>
<path d="M105.636 230.034L82.998 266.976H85.578L113.328 230.034H105.636Z" fill="#C7C7C7"/>
<path d="M116.736 230.034L139.374 266.976H136.794L109.044 230.034H116.736Z" fill="#C7C7C7"/>
<path d="M120.69 230.034L166.5 266.976H163.92L111.012 230.034H120.69Z" fill="#C7C7C7"/>
<path d="M197.154 216.486V205.68L134.238 203.094L101.01 114.372H24.87L51.81 216.486L116.172 234.552H120.204L197.154 216.486Z" fill="#455A64"/>
<path d="M24.87 114.372H33.582L61.65 207.45L118.596 223.584L197.154 205.68V216.486L120.204 234.552H116.172L51.81 216.486L24.87 114.372Z" fill="#37474F"/>
<path d="M243.42 266.604C241.386 266.652 188.742 250.404 187.128 248.49C186.954 248.28 187.776 240.486 189.138 234.3C189.198 234 170.436 209.424 170.436 209.424L204.354 196.224L220.584 229.824L224.784 238.566C224.784 238.566 242.346 256.224 243.906 258.486C245.466 260.748 245.448 266.556 243.42 266.604Z" fill="#EBEBEB"/>
<path d="M244.902 266.904C242.784 266.958 187.824 250.182 186.132 248.214C185.484 247.476 186.468 244.074 189.132 234.3L225.132 238.638C225.132 238.638 243.732 256.098 245.352 258.438C246.972 260.778 247.014 266.844 244.902 266.904Z" fill="#FF0055"/>
<path d="M244.8 264.462C235.656 261.426 198.486 250.062 189.216 247.722C189.144 247.722 189.126 247.752 189.216 247.782C198.216 250.992 235.476 262.08 244.776 264.582C244.932 264.666 244.974 264.528 244.8 264.462Z" fill="#263238"/>
<path d="M242.46 255.396C241.444 255.057 240.368 254.932 239.301 255.031C238.234 255.129 237.199 255.447 236.262 255.966C234.566 256.884 233.29 258.421 232.698 260.256C232.698 260.31 232.788 260.346 232.812 260.292C234.438 256.842 238.686 254.676 242.412 255.492C242.423 255.492 242.434 255.489 242.444 255.483C242.453 255.477 242.461 255.469 242.466 255.459C242.471 255.449 242.473 255.438 242.472 255.427C242.471 255.416 242.467 255.405 242.46 255.396Z" fill="#263238"/>
<path d="M228.888 242.274C225.216 241.074 220.548 241.074 217.332 243.408C217.206 243.498 217.332 243.672 217.464 243.648C221.205 242.944 225.011 242.641 228.816 242.742C228.873 242.741 228.928 242.72 228.97 242.683C229.013 242.646 229.042 242.595 229.05 242.539C229.059 242.482 229.047 242.425 229.018 242.376C228.988 242.328 228.942 242.292 228.888 242.274Z" fill="#263238"/>
<path d="M231.396 244.248C227.724 243.048 223.056 243.048 219.84 245.388C219.714 245.478 219.84 245.652 219.972 245.628C223.713 244.922 227.519 244.618 231.324 244.722C231.385 244.728 231.447 244.711 231.495 244.673C231.544 244.635 231.577 244.58 231.586 244.519C231.595 244.458 231.581 244.396 231.545 244.346C231.51 244.295 231.456 244.26 231.396 244.248Z" fill="#263238"/>
<path d="M233.904 246.228C230.232 245.028 225.564 245.028 222.348 247.368C222.222 247.458 222.348 247.632 222.48 247.608C226.221 246.901 230.026 246.598 233.832 246.702C233.893 246.708 233.955 246.691 234.003 246.653C234.052 246.615 234.084 246.56 234.094 246.499C234.103 246.438 234.088 246.376 234.053 246.326C234.018 246.275 233.964 246.24 233.904 246.228Z" fill="#263238"/>
<path d="M236.4 248.208C232.728 247.008 228.06 247.008 224.844 249.342C224.718 249.432 224.844 249.612 224.976 249.588C228.717 248.881 232.523 248.578 236.328 248.682C236.389 248.688 236.451 248.671 236.499 248.633C236.548 248.595 236.581 248.54 236.59 248.479C236.599 248.418 236.585 248.356 236.549 248.306C236.514 248.255 236.46 248.22 236.4 248.208Z" fill="#263238"/>
<path d="M235.878 233.646C234.486 231.528 231.678 232.326 230.028 233.58C227.252 235.786 225.104 238.683 223.8 241.98C223.77 242.058 223.8 242.106 223.884 242.124C223.884 242.412 224.124 242.724 224.454 242.622C227.634 241.608 231.162 240.918 233.934 238.956C235.554 237.816 237.198 235.65 235.878 233.646ZM228.96 240.102C227.412 240.642 225.84 241.098 224.31 241.692C225.476 240.02 226.726 238.408 228.054 236.862C228.709 236.124 229.413 235.43 230.16 234.786C231.36 233.814 235.896 231.834 235.038 235.986C234.564 238.236 230.814 239.466 228.96 240.102Z" fill="#263238"/>
<path d="M214.2 240.558C217.26 242.034 220.848 242.13 224.154 242.604C224.496 242.652 224.682 242.298 224.634 242.004C224.65 242 224.665 241.992 224.677 241.981C224.689 241.971 224.699 241.957 224.705 241.942C224.711 241.926 224.713 241.91 224.711 241.893C224.709 241.877 224.703 241.862 224.694 241.848C222.872 238.819 220.288 236.32 217.2 234.6C215.37 233.634 212.466 233.316 211.44 235.632C210.456 237.834 212.436 239.7 214.2 240.558ZM212.61 237.78C211.08 233.856 215.91 235.05 217.224 235.812C218.062 236.325 218.863 236.894 219.624 237.516C221.19 238.82 222.69 240.202 224.118 241.656C222.51 241.326 220.884 241.134 219.264 240.858C217.386 240.534 213.48 239.946 212.634 237.78H212.61Z" fill="#263238"/>
<path d="M222.3 231.414L184.908 236.94C184.908 236.94 164.508 199.89 156.264 190.674C155.802 190.142 155.299 189.649 154.758 189.198C153.906 188.812 152.991 188.585 152.058 188.526C141 187.182 103.794 190.8 78.078 189.126L90.078 173.076L95.4 165.954C124.368 162.654 159.918 150.81 175.956 158.856C193.338 167.586 222.3 231.414 222.3 231.414Z" fill="#263238"/>
<path d="M217.614 225.066C211.26 225.888 213.072 225.564 206.724 226.452C203.616 226.884 188.004 229.026 185.172 229.914C185.156 229.914 185.141 229.92 185.13 229.932C185.118 229.943 185.112 229.958 185.112 229.974C185.112 229.99 185.118 230.005 185.13 230.016C185.141 230.028 185.156 230.034 185.172 230.034C188.136 230.034 203.706 227.58 206.802 227.088C213.132 226.086 211.302 226.308 217.602 225.24C217.615 225.244 217.629 225.246 217.642 225.244C217.656 225.242 217.669 225.237 217.68 225.229C217.692 225.222 217.701 225.211 217.708 225.2C217.715 225.188 217.719 225.174 217.72 225.161C217.721 225.147 217.719 225.133 217.714 225.121C217.708 225.108 217.7 225.097 217.69 225.087C217.68 225.078 217.668 225.072 217.655 225.068C217.641 225.064 217.627 225.064 217.614 225.066Z" fill="#37474F"/>
<path d="M185.1 229.392C180.87 222.318 161.604 187.392 157.77 186.024C154.278 184.77 84.444 186.222 83.412 186.228C83.34 186.228 83.334 186.342 83.412 186.342C91.68 186.24 155.508 186.012 157.332 186.732C161.118 188.226 184.152 228.732 184.722 229.578C184.866 229.8 185.244 229.632 185.1 229.392Z" fill="#37474F"/>
<path d="M58.5 174.51C58.5 174.51 56.292 195.6 66.978 206.04C79.764 218.574 164.178 215.412 177.228 211.182C190.278 206.952 190.71 185.856 176.418 180.966C162.822 176.316 102.522 173.64 101.094 173.07C99.666 172.5 95.484 165.828 95.484 165.828L58.5 174.51Z" fill="#263238"/>
<path d="M76.356 173.916C76.356 173.814 76.182 173.85 76.182 173.946C76.1837 176.678 75.2212 179.324 73.464 181.416C71.46 183.732 68.508 185.016 65.832 186.378C65.574 186.51 65.772 186.912 66.036 186.834C67.6809 186.326 69.2661 185.642 70.764 184.794C72.137 184.063 73.3458 183.058 74.316 181.842C75.1875 180.735 75.8189 179.458 76.1701 178.094C76.5213 176.729 76.5846 175.306 76.356 173.916Z" fill="#37474F"/>
<path d="M100.518 171.756C99.918 170.994 99.27 170.268 98.646 169.53C97.176 167.772 95.694 166.014 94.152 164.322C94.002 164.16 93.72 164.388 93.852 164.562C94.89 165.924 95.994 167.238 97.074 168.564L98.748 170.598C99.3326 171.204 99.8551 171.868 100.308 172.578C100.716 173.334 100.182 173.976 99.402 174.06C98.7093 174.076 98.0362 173.83 97.518 173.37C96.318 172.434 95.34 171.096 94.332 169.956C93.732 169.26 93.09 168.558 92.46 167.874C91.83 167.19 91.074 166.44 90.408 165.714C90.366 165.666 90.282 165.714 90.318 165.78C90.918 166.584 91.44 167.418 92.028 168.222C92.616 169.026 93.228 169.818 93.828 170.622C94.428 171.426 94.986 172.098 95.628 172.812C96.1358 173.443 96.7439 173.986 97.428 174.42C98.55 175.08 100.488 175.218 101.088 173.772C101.184 173.416 101.182 173.04 101.082 172.685C100.981 172.33 100.786 172.009 100.518 171.756Z" fill="#37474F"/>
<path d="M175.44 211.26C170.934 211.344 166.44 211.608 161.934 211.704C157.428 211.8 153 211.824 148.53 211.782C139.558 211.698 130.594 211.35 121.638 210.738C112.59 210.138 102.834 209.208 93.8519 207.966C89.5499 207.366 85.1939 206.874 80.9399 205.962C77.113 205.237 73.5736 203.432 70.7399 200.76C64.9199 195.114 62.6579 186.816 61.7399 178.89C61.6139 177.822 61.5119 176.76 61.4279 175.692C61.4279 175.62 61.3079 175.62 61.3139 175.692C61.8419 183.822 63.1139 192.3 68.2199 198.834C70.3773 201.686 73.2503 203.918 76.5479 205.302C80.5739 206.916 85.0379 207.294 89.2859 207.87C98.2859 209.07 108.102 210.036 117.174 210.744C126.246 211.452 135.462 211.89 144.618 212.028C153.774 212.166 162.936 212.028 172.08 211.584C173.202 211.53 174.312 211.464 175.428 211.362C175.5 211.362 175.5 211.26 175.44 211.26Z" fill="#37474F"/>
<path d="M187.458 191.586C186.6 188.056 184.448 184.977 181.428 182.958C178.188 180.744 174.312 179.736 170.472 179.178C166.134 178.548 161.736 178.224 157.368 177.804C148.412 176.932 139.448 176.132 130.476 175.404C121.512 174.666 102.204 173.166 101.118 173.124C101.028 173.124 101.004 173.28 101.118 173.292C109.77 174.252 117.648 175.092 126.318 175.866C134.988 176.64 143.718 177.486 152.448 178.35C156.784 178.774 161.122 179.21 165.462 179.658C169.476 180.072 173.61 180.48 177.378 182.058C180.612 183.39 183.522 185.532 185.178 188.658C186.71 191.76 187.164 195.283 186.468 198.672C185.863 201.823 184.411 204.75 182.268 207.138C180.211 209.493 177.469 211.146 174.426 211.866C173.634 212.04 172.68 212.16 171.948 212.31C171.894 212.31 171.834 212.436 171.894 212.436C178.374 212.604 184.368 207.87 186.708 201.948C188.012 198.652 188.273 195.035 187.458 191.586Z" fill="#37474F"/>
<path d="M83.694 122.688C87.984 139.488 96.51 159.576 100.014 162.78C104.454 166.836 131.604 172.158 133.014 172.296C135.366 172.53 140.214 148.296 138.024 148.38C132.216 148.506 114.324 146.688 113.04 145.434C111.756 144.18 102.618 133.206 93.24 120.834C86.802 112.32 81.036 112.26 83.694 122.688Z" fill="#EB9481"/>
<path d="M130.836 171.294C131.226 171.48 136.836 174.12 140.25 175.026C142.812 175.704 150.246 177.456 151.272 174.708C151.968 172.836 147.72 171.288 144.744 170.13C143.172 169.53 141.216 167.94 141.654 166.932C142.41 165.132 146.454 166.824 149.124 168.288C154.284 171.126 161.19 176.28 164.238 173.628C165.384 172.62 163.98 170.88 161.94 169.182C165.228 171.138 168.726 172.722 170.046 171.654C170.802 171.054 170.82 170.238 170.37 169.326C171.378 169.632 172.26 169.542 172.86 168.876C173.886 167.754 173.334 166.14 172.14 164.496C172.337 164.471 172.526 164.399 172.69 164.286C172.853 164.174 172.988 164.023 173.082 163.848C175.23 160.392 163.836 150.9 159.954 150.084C148.554 147.684 136.584 148.446 136.584 148.446C132.21 152.118 130.8 171.282 130.836 171.294Z" fill="#EB9481"/>
<path d="M147.276 160.44C149.991 160.807 152.597 161.747 154.92 163.2C157.848 165.03 159.81 167.208 162.276 169.392C162.342 169.452 162.276 169.554 162.192 169.494C160.992 168.456 156.15 164.568 154.896 163.692C152.629 162.067 150.021 160.981 147.27 160.518C147.27 160.518 147.252 160.434 147.276 160.44Z" fill="#263238"/>
<path d="M149.28 155.568C152.28 156.312 155.358 157.068 158.166 158.412C161.232 159.882 163.662 162.342 166.056 164.712C167.488 166.136 168.888 167.588 170.256 169.068C170.316 169.134 170.256 169.236 170.172 169.17C167.74 166.73 165.24 164.358 162.672 162.054C160.3 159.918 157.532 158.269 154.524 157.2C152.802 156.6 151.032 156.114 149.268 155.64L149.28 155.568Z" fill="#263238"/>
<path d="M152.364 151.278C155.28 151.806 157.818 152.256 160.428 153.744C163.872 155.724 167.238 159.108 168.42 160.308C169.722 161.634 170.982 163.008 172.218 164.394C172.272 164.448 172.17 164.538 172.122 164.484C169.291 161.443 166.266 158.587 163.068 155.934C161.561 154.65 159.865 153.606 158.04 152.838C156.196 152.164 154.297 151.65 152.364 151.302C152.364 151.302 152.352 151.278 152.364 151.278Z" fill="#263238"/>
<path d="M136.146 146.754L127.986 174.954C127.986 174.954 103.92 168.708 99.438 164.1C94.956 159.492 86.31 135.36 83.652 123.624C80.994 111.888 86.97 112.044 92.652 119.346C98.334 126.648 112.38 144.336 113.154 144.708C113.928 145.08 136.146 146.754 136.146 146.754Z" fill="#FF0055"/>
<path d="M125.4 162.564C126.39 159.246 127.41 155.928 128.274 152.568C128.766 150.66 129.27 148.752 129.744 146.838C129.744 146.766 129.642 146.724 129.618 146.796C128.49 150.09 127.368 153.396 126.396 156.744C125.424 160.092 124.428 163.398 123.498 166.746C122.97 168.642 122.502 170.556 122.094 172.488C122.094 172.524 122.148 172.548 122.16 172.488C123.39 169.248 124.398 165.912 125.4 162.564Z" fill="#263238"/>
<path opacity="0.1" d="M124.518 174C117.684 172.074 102.852 167.598 99.432 164.088C94.956 159.48 86.31 135.348 83.652 123.618C82.386 117.984 83.094 115.08 84.81 114.408C84.9975 114.498 85.1798 114.598 85.356 114.708C94.2 126.846 112.524 155.832 124.518 174Z" fill="black"/>
<path d="M56.07 178.158C56.202 178.296 107.07 167.148 107.55 166.56C108.21 165.726 99.114 127.47 89.55 116.052C87.15 113.196 79.512 113.394 76.092 116.274C59.13 130.554 55.59 177.666 56.07 178.158Z" fill="#FF0055"/>
<path d="M72.114 119.01C61.968 126.81 35.232 158.37 40.818 165.852C46.404 173.334 84.72 170.85 95.898 167.652C99.222 166.692 90.69 145.536 87.138 144.492C84.186 143.616 67.602 148.122 67.302 147.156C66.96 146.07 70.638 139.08 76.56 126.294C83.4 111.534 76.596 115.566 72.114 119.01Z" fill="#EB9481"/>
<path d="M102.732 142.002C110.124 142.188 111.996 143.376 118.332 140.202C122.478 138.132 125.58 139.896 122.76 143.802C118.152 150.198 108.558 151.962 105.06 151.602L102.732 142.002Z" fill="#EB9481"/>
<path d="M82.386 145.8C82.386 145.8 91.254 142.632 99.15 142.056C104.61 141.66 116.592 142.11 125.904 155.55C128.112 158.736 128.994 164.838 123.504 160.95C119.604 158.184 117.96 155.25 115.398 154.056C115.398 154.056 115.602 161.958 112.326 164.046C109.458 165.87 106.465 167.488 103.368 168.888C102.984 168.38 102.631 167.849 102.312 167.298C102.312 167.298 99.066 168.954 93.702 167.538L82.386 145.8Z" fill="#EB9481"/>
<path d="M104.4 142.488C106.692 144.216 111.498 147.954 114.36 152.376C117.54 157.284 122.346 167.61 118.692 169.92C116.016 171.612 113.838 167.832 113.838 167.832C113.838 167.832 114.924 172.518 112.17 173.52C109.662 174.432 108.15 171.408 108.15 171.408C108.15 171.408 108.318 174.366 105.75 174.78C102.642 175.278 102.798 169.002 99.21 166.782C98.4 166.284 104.4 142.488 104.4 142.488Z" fill="#EB9481"/>
<path d="M108.63 154.872C110.526 156.846 113.67 162.432 113.916 167.73C113.916 167.844 113.838 167.916 113.808 167.808C112.597 163.311 110.844 158.977 108.588 154.902L108.63 154.872Z" fill="#263238"/>
<path d="M103.764 158.226C105.222 160.098 108.21 166.026 108.276 171.372C108.276 171.498 108.186 171.558 108.162 171.45C107.186 166.895 105.695 162.467 103.716 158.25C103.716 158.25 103.746 158.202 103.764 158.226Z" fill="#263238"/>
<path d="M115.398 153.984C117.642 155.07 118.998 156.474 120.738 158.184C121.599 159.034 122.506 159.835 123.456 160.584C124.326 161.262 125.616 162.282 126.768 161.634C127.41 161.28 127.542 160.434 127.524 159.786C127.393 158.781 127.106 157.804 126.672 156.888C126.672 156.888 126.714 156.828 126.732 156.888C127.159 157.725 127.501 158.604 127.752 159.51C127.909 160.129 127.877 160.781 127.662 161.382C127.098 162.624 125.538 162.54 124.512 161.982C123.906 161.639 123.335 161.237 122.808 160.782C122.292 160.362 121.794 159.918 121.314 159.456C120.318 158.514 119.376 157.518 118.398 156.564C117.436 155.661 116.418 154.819 115.35 154.044C115.314 154.026 115.356 153.966 115.398 153.984Z" fill="#263238"/>
<path d="M118.962 163.086C117.958 159.994 116.756 156.969 115.362 154.032C115.36 154.028 115.358 154.024 115.357 154.02C115.356 154.016 115.356 154.012 115.357 154.008C115.358 154.003 115.36 153.999 115.362 153.996C115.364 153.992 115.367 153.989 115.371 153.987C115.375 153.985 115.379 153.983 115.383 153.982C115.387 153.981 115.391 153.981 115.395 153.982C115.4 153.983 115.404 153.985 115.407 153.987C115.411 153.989 115.414 153.992 115.416 153.996C116.964 156.036 119.148 161.148 119.616 162.744C120.084 164.34 120.528 166.314 120.258 167.946C119.85 170.406 118.14 170.604 117.516 170.622C116.78 170.635 116.061 170.393 115.482 169.938C114.809 169.356 114.264 168.641 113.88 167.838C113.88 167.802 113.91 167.76 113.934 167.802C114.624 168.912 115.884 170.1 117.252 170.148C117.552 170.166 117.853 170.126 118.137 170.028C118.421 169.93 118.683 169.777 118.908 169.578C119.371 169.045 119.626 168.364 119.628 167.658C119.668 166.107 119.443 164.561 118.962 163.086Z" fill="#263238"/>
<path d="M82.386 144.714L90.084 171.504C90.084 171.504 42.186 174.24 39.534 165.54C36.882 156.84 60.018 128.34 69.618 120.54C80.742 111.474 81.336 115.278 77.718 124.35C73.926 133.848 67.398 147.408 67.398 147.408L82.386 144.714Z" fill="#FF0055"/>
<path d="M52.266 151.68C54.6575 150.553 57.1281 149.603 59.658 148.836C62.1594 148.088 64.7122 147.525 67.296 147.15C68.766 146.916 70.248 146.76 71.724 146.592C71.7336 146.592 71.7427 146.596 71.7495 146.603C71.7562 146.609 71.76 146.618 71.76 146.628C71.76 146.638 71.7562 146.647 71.7495 146.653C71.7427 146.66 71.7336 146.664 71.724 146.664C69.1288 147.052 66.5585 147.591 64.026 148.278C61.5 148.938 58.998 149.64 56.496 150.39C55.086 150.816 53.694 151.308 52.296 151.776C52.2892 151.782 52.2811 151.785 52.2724 151.787C52.2638 151.789 52.2549 151.788 52.2465 151.786C52.2381 151.783 52.2304 151.778 52.2242 151.772C52.218 151.766 52.2133 151.758 52.2107 151.75C52.2081 151.742 52.2076 151.733 52.2092 151.724C52.2108 151.715 52.2144 151.707 52.2199 151.7C52.2253 151.693 52.2324 151.688 52.2404 151.684C52.2485 151.681 52.2573 151.679 52.266 151.68Z" fill="#263238"/>
<path d="M82.278 144.6C82.032 144.6 68.712 146.7 68.268 146.826C68.352 146.646 71.73 140.304 72.234 139.38C72.282 139.284 72.324 139.194 72.378 139.098C72.678 138.696 72.978 138.3 73.272 137.898L74.364 136.308L73.2 137.838C73.02 138.078 72.852 138.324 72.684 138.564C73.02 137.912 73.35 137.252 73.674 136.584C74.202 135.522 74.694 134.454 75.18 133.374H75.126C74.13 135.222 73.08 137.04 72.078 138.882C71.076 140.724 67.278 147.504 67.308 147.504C67.338 147.504 82.032 144.894 82.308 144.828C82.3383 144.824 82.3657 144.808 82.3842 144.784C82.4028 144.76 82.411 144.729 82.407 144.699C82.4031 144.669 82.3872 144.641 82.363 144.623C82.3388 144.604 82.3083 144.596 82.278 144.6Z" fill="#263238"/>
<path d="M80.448 160.968C79.608 157.968 78.786 154.968 77.838 152.028C77.298 150.348 76.764 148.668 76.206 146.994C76.206 146.928 76.074 146.952 76.092 146.994C76.818 150.03 77.55 153.066 78.414 156.066C79.278 159.066 80.106 162.066 81.006 165.012C81.516 166.698 82.08 168.366 82.692 170.028C82.692 170.036 82.6952 170.044 82.7008 170.049C82.7064 170.055 82.7141 170.058 82.722 170.058C82.73 170.058 82.7376 170.055 82.7432 170.049C82.7489 170.044 82.752 170.036 82.752 170.028C82.128 166.974 81.294 163.974 80.448 160.968Z" fill="#263238"/>
<path d="M90.6 171.996C90.264 171.156 89.862 169.956 89.49 169.128C89.394 168.912 89.232 168.924 89.304 169.128C89.538 169.878 89.7 170.706 89.904 171.474C89.232 171.474 88.566 171.504 87.894 171.534L85.572 171.636C84.052 171.696 82.534 171.74 81.018 171.768C77.938 171.824 74.864 171.824 71.796 171.768C65.6456 171.654 59.5052 171.219 53.4 170.466C51.69 170.25 49.98 169.998 48.288 169.692C46.6063 169.414 44.9401 169.05 43.296 168.6C43.254 168.6 43.23 168.666 43.296 168.678C44.6855 169.221 46.116 169.652 47.574 169.968C49.098 170.298 50.64 170.568 52.182 170.826C55.26 171.3 58.356 171.606 61.458 171.834C67.614 172.278 73.78 172.464 79.956 172.392C81.684 172.392 83.412 172.332 85.14 172.278C86.01 172.248 86.886 172.218 87.756 172.17C88.626 172.122 90.672 172.14 90.6 171.996Z" fill="#263238"/>
<path d="M155.22 175.518H93.936V177.99H155.22V175.518Z" fill="#455A64"/>
<path d="M127.848 175.518H93.936V177.99H127.848V175.518Z" fill="#A6A6A6"/>
<path d="M126.816 177.99H180.528L188.118 141.51H134.406L126.816 177.99Z" fill="#A6A6A6"/>
<path d="M129.252 177.99H182.964L190.554 141.51H136.842L129.252 177.99Z" fill="#C7C7C7"/>
<path d="M156.324 160.566C156.26 161.02 156.296 161.482 156.429 161.921C156.562 162.36 156.789 162.765 157.093 163.107C157.398 163.449 157.774 163.722 158.194 163.904C158.615 164.087 159.07 164.177 159.528 164.166C160.511 164.145 161.453 163.769 162.18 163.107C162.907 162.445 163.369 161.543 163.482 160.566C163.546 160.112 163.51 159.65 163.377 159.211C163.244 158.772 163.017 158.367 162.713 158.025C162.408 157.683 162.032 157.41 161.612 157.228C161.191 157.045 160.736 156.955 160.278 156.966C159.296 156.988 158.354 157.365 157.628 158.026C156.901 158.688 156.438 159.59 156.324 160.566Z" fill="#EBEBEB"/>
<path d="M85.6741 128.286C85.6741 128.286 76.7161 119.4 70.8601 119.532L65.8621 123.9C65.8621 123.9 64.2241 124.422 63.7321 123.384C62.5321 120.816 62.3041 114.636 67.6561 110.67C72.5521 107.034 80.5201 107.376 87.1561 109.182C93.5281 110.916 99.0301 115.182 97.0381 119.346C95.0461 123.51 85.6741 128.286 85.6741 128.286Z" fill="#FF0055"/>
<path opacity="0.1" d="M86.328 126.336C86.328 126.336 93.696 121.17 94.476 118.068C95.256 114.966 89.076 111.96 85.074 110.766C78.888 108.918 74.658 109.284 71.154 112.566C67.65 115.848 86.328 126.336 86.328 126.336Z" fill="black"/>
<path d="M86.328 126.336C86.328 126.336 79.2 114 70.158 112.734L70.86 119.532C70.86 119.532 76.26 119.592 85.674 128.286L86.328 126.336Z" fill="#FF0055"/>
<path d="M68.4 119.634C70.0473 119.515 71.7009 119.752 73.248 120.33C74.7999 120.86 76.2856 121.567 77.676 122.436C79.0768 123.291 80.4198 124.237 81.696 125.268L83.574 126.87L85.374 128.556L85.578 128.748L85.806 128.628C87.5026 127.776 89.1385 126.807 90.702 125.73C91.4902 125.202 92.2456 124.627 92.964 124.008C93.6897 123.397 94.3547 122.718 94.95 121.98C93.5727 123.255 92.0573 124.372 90.432 125.31C89.634 125.796 88.812 126.252 87.984 126.684C87.156 127.116 86.322 127.554 85.482 127.944L85.908 128.022L84.108 126.276C83.508 125.718 82.842 125.178 82.206 124.638C81.57 124.098 80.868 123.618 80.178 123.138C79.488 122.658 78.78 122.208 78.03 121.818C76.5694 120.977 75.0066 120.328 73.38 119.886C72.978 119.766 72.558 119.694 72.18 119.604C71.802 119.514 71.346 119.484 70.926 119.46C70.0802 119.376 69.2263 119.435 68.4 119.634Z" fill="#263238"/>
<path d="M65.8619 123.9C67.7025 122.657 69.3814 121.189 70.8599 119.532C69.0231 120.78 67.3447 122.247 65.8619 123.9Z" fill="#263238"/>
<path d="M82.6679 124.122C82.1375 126.944 81.8505 129.807 81.8099 132.678C81.7619 134.682 82.5359 141.87 84.7619 141.606C86.9879 141.342 83.3639 136.71 82.7279 132.924C82.0919 129.138 83.1059 126.354 83.2379 124.086L82.6679 124.122Z" fill="#FF0055"/>
<g opacity="0.1">
<path d="M82.6679 124.122C82.1375 126.944 81.8505 129.807 81.8099 132.678C81.7619 134.682 82.5359 141.87 84.7619 141.606C86.9879 141.342 83.3639 136.71 82.7279 132.924C82.0919 129.138 83.1059 126.354 83.2379 124.086L82.6679 124.122Z" fill="black"/>
</g>
<path d="M90.6 124.518C91.3157 127.261 91.8687 130.044 92.256 132.852C92.496 134.652 92.544 141.204 90.51 141.198C88.476 141.192 91.266 136.644 91.452 133.164C91.638 129.684 90.438 126.564 90.084 124.548L90.6 124.518Z" fill="#FF0055"/>
<g opacity="0.1">
<path d="M90.6 124.518C91.3157 127.261 91.8687 130.044 92.256 132.852C92.496 134.652 92.544 141.204 90.51 141.198C88.476 141.192 91.266 136.644 91.452 133.164C91.638 129.684 90.438 126.564 90.084 124.548L90.6 124.518Z" fill="black"/>
</g>
<path d="M87.078 124.956C84.756 124.8 80.424 119.952 78.948 116.1C78.852 115.836 79.548 113.298 80.322 110.172C80.76 108.27 81.21 106.146 81.474 104.172L93.414 108.852C92.3745 111.216 91.6289 113.698 91.194 116.244C91.1673 116.517 91.1673 116.793 91.194 117.066C91.194 117.102 91.194 117.15 91.194 117.204C91.2 118.8 90.72 125.19 87.078 124.956Z" fill="#EB9481"/>
<path d="M91.164 117.072C91.1676 117.118 91.1676 117.164 91.164 117.21C90.7339 117.207 90.3046 117.171 89.88 117.102C82.884 115.986 82.332 107.202 82.332 104.502L93.414 108.84C92.3791 111.213 91.6357 113.704 91.2 116.256C91.1673 116.527 91.1553 116.799 91.164 117.072Z" fill="#263238"/>
<path d="M83.904 88.8C81.402 92.688 80.172 105.6 82.416 109.2C85.674 114.414 92.742 116.826 97.608 112.512C102.324 108.312 103.608 91.47 100.962 88.026C97.026 82.926 87.6 83.046 83.904 88.8Z" fill="#EB9481"/>
<path d="M91.962 98.196C92.3442 98.1374 92.7228 98.0573 93.096 97.956C93.5068 97.924 93.8962 97.7598 94.206 97.488C94.2867 97.3831 94.3305 97.2544 94.3305 97.122C94.3305 96.9896 94.2867 96.8609 94.206 96.756C94.0139 96.5768 93.778 96.4513 93.5221 96.3923C93.2661 96.3333 92.9991 96.3429 92.748 96.42C92.2095 96.4969 91.7204 96.7757 91.38 97.2C91.3081 97.299 91.2666 97.4167 91.2605 97.5389C91.2545 97.6611 91.2841 97.7824 91.3458 97.888C91.4075 97.9936 91.4987 98.079 91.6081 98.1337C91.7175 98.1884 91.8405 98.21 91.962 98.196Z" fill="#263238"/>
<path d="M100.716 99.396C100.351 99.2707 99.9922 99.1265 99.642 98.964C99.2417 98.8659 98.8851 98.6381 98.628 98.316C98.5667 98.1989 98.5459 98.0648 98.5687 97.9346C98.5915 97.8044 98.6566 97.6854 98.754 97.596C98.9728 97.4504 99.2264 97.3653 99.4888 97.3495C99.7513 97.3337 100.013 97.3877 100.248 97.506C100.757 97.6795 101.184 98.034 101.448 98.502C101.501 98.6113 101.522 98.7336 101.508 98.8544C101.494 98.9752 101.445 99.0894 101.368 99.1834C101.291 99.2775 101.189 99.3475 101.073 99.3852C100.958 99.4229 100.834 99.4266 100.716 99.396Z" fill="#263238"/>
<path d="M91.2961 108.354C91.4761 108.582 91.6501 108.888 91.9621 108.954C92.2852 108.991 92.6125 108.958 92.9221 108.858C92.9221 108.858 92.9701 108.858 92.9221 108.906C92.7752 109.058 92.5908 109.169 92.3874 109.227C92.1841 109.285 91.969 109.288 91.7641 109.236C91.5909 109.169 91.4414 109.053 91.3345 108.901C91.2277 108.75 91.1684 108.569 91.1641 108.384C91.2001 108.33 91.2661 108.318 91.2961 108.354Z" fill="#263238"/>
<path d="M92.538 105.876C92.7156 106.245 92.967 106.574 93.2766 106.842C93.5861 107.111 93.9474 107.313 94.338 107.436C94.679 107.549 95.0348 107.612 95.394 107.622H95.796C95.843 107.617 95.8872 107.598 95.9227 107.567C95.9582 107.535 95.9831 107.494 95.994 107.448C95.997 107.418 95.997 107.388 95.994 107.358V107.28C96.096 106.614 96.162 105.594 96.162 105.594C96.39 105.744 97.56 106.464 97.584 106.11C97.782 103.206 97.998 99.972 97.584 97.032C97.584 96.936 97.428 96.942 97.422 97.032C97.128 99.816 97.32 102.636 97.068 105.432C96.6517 105.167 96.1989 104.965 95.724 104.832C95.628 104.832 95.634 106.812 95.568 107.106C94.428 107.106 93.624 106.662 92.634 105.768C92.568 105.75 92.496 105.798 92.538 105.876Z" fill="#263238"/>
<path d="M95.046 107.232C94.6185 107.663 94.0876 107.977 93.504 108.144C93.1827 108.221 92.8458 108.198 92.538 108.078C91.872 107.808 91.938 107.172 92.13 106.644C92.2382 106.365 92.377 106.1 92.544 105.852C93.2099 106.566 94.0864 107.05 95.046 107.232Z" fill="#263238"/>
<path d="M93.504 108.144C93.1827 108.221 92.8458 108.198 92.538 108.078C91.872 107.808 91.938 107.172 92.13 106.644C92.4946 106.703 92.8286 106.883 93.078 107.155C93.3275 107.427 93.4775 107.776 93.504 108.144Z" fill="#FF9ABB"/>
<path d="M93.6659 100.56C93.6659 100.56 93.5939 100.59 93.5879 100.626C93.4799 101.49 93.2099 102.426 92.3879 102.618V102.666C93.3539 102.684 93.7019 101.4 93.6659 100.56Z" fill="#263238"/>
<path d="M93.042 99.546C91.68 99.222 91.134 101.946 92.394 102.27C93.654 102.594 94.2 99.816 93.042 99.546Z" fill="#263238"/>
<path d="M98.682 101.22C98.682 101.22 98.742 101.274 98.736 101.31C98.532 102.15 98.442 103.152 99.15 103.596V103.644C98.22 103.314 98.358 102 98.682 101.22Z" fill="#263238"/>
<path d="M99.63 100.488C101.016 100.668 100.554 103.434 99.27 103.266C97.986 103.098 98.466 100.338 99.63 100.488Z" fill="#263238"/>
<path d="M85.134 97.098C86.934 94.878 86.994 90.12 88.668 89.442C92.268 87.978 96.18 94.716 100.014 96.132C103.728 97.506 105.84 95.568 106.26 92.304C106.68 89.04 104.856 86.076 100.902 83.94C96.816 81.726 92.244 82.038 89.604 82.632C89.604 82.632 91.092 81.468 90.912 80.868C90.732 80.268 88.38 81.066 87.6 81.468C86.9955 81.8573 86.4669 82.3534 86.04 82.932C85.5351 82.5902 84.9834 82.3234 84.402 82.14C83.5526 81.8995 82.6457 81.9653 81.84 82.326C81.69 82.524 82.98 83.19 83.916 83.58C83.916 83.58 81.288 85.29 80.598 87.318C79.908 89.346 79.572 100.038 80.286 100.416C81.204 100.908 84.414 97.998 85.134 97.098Z" fill="#455A64"/>
<path d="M84.372 83.484C84.408 83.484 84.438 83.538 84.372 83.556C83.1813 83.9632 82.1278 84.6946 81.33 85.668C80.4547 86.8833 79.9203 88.3106 79.782 89.802C79.416 92.658 79.836 95.526 80.076 98.37C80.076 98.454 79.938 98.472 79.926 98.37C79.482 95.37 79.092 92.148 79.608 89.136C80.07 86.586 81.636 84 84.372 83.484Z" fill="#455A64"/>
<path d="M88.878 88.416C90.0579 88.6845 91.1758 89.1752 92.172 89.862C93.0734 90.5834 93.8798 91.416 94.572 92.34C96.27 94.26 98.268 95.988 100.764 96.726C100.764 96.726 100.764 96.786 100.764 96.774C98.424 96.246 96.486 94.788 94.86 93.084C94.1137 92.1453 93.3123 91.2517 92.46 90.408C91.3646 89.6183 90.149 89.0105 88.86 88.608C88.8431 88.5974 88.8294 88.5822 88.8206 88.5643C88.8117 88.5464 88.8081 88.5264 88.8099 88.5065C88.8118 88.4866 88.8191 88.4676 88.8312 88.4516C88.8432 88.4356 88.8594 88.4233 88.878 88.416Z" fill="#455A64"/>
<path d="M92.286 82.41C94.0662 82.2079 95.866 82.2584 97.632 82.56C99.3375 82.8016 100.988 83.3375 102.51 84.144C105.102 85.59 107.004 88.266 106.62 91.344C106.448 92.9271 105.69 94.3887 104.496 95.442C104.48 95.4563 104.459 95.4637 104.438 95.4626C104.416 95.4615 104.396 95.4519 104.382 95.436C104.368 95.4201 104.36 95.3991 104.361 95.3778C104.363 95.3564 104.372 95.3363 104.388 95.322C105.407 94.3289 106.079 93.0329 106.301 91.6273C106.524 90.2216 106.287 88.7816 105.624 87.522C104.076 84.738 100.956 83.436 97.968 82.866C96.093 82.5363 94.1886 82.4036 92.286 82.47V82.41Z" fill="#455A64"/>
<path d="M90.6 104.832C89.8755 104.63 89.2223 104.228 88.7146 103.673C88.2069 103.118 87.8652 102.432 87.7281 101.692C87.5911 100.953 87.6644 100.189 87.9395 99.4894C88.2147 98.7894 88.6808 98.1806 89.2847 97.7322C89.8887 97.2839 90.6063 97.014 91.356 96.9532C92.1058 96.8924 92.8575 97.0432 93.5258 97.3884C94.1941 97.7336 94.7521 98.2594 95.1365 98.906C95.5208 99.5525 95.7161 100.294 95.7 101.046C95.6883 101.574 95.5727 102.094 95.3598 102.578C95.1469 103.061 94.8409 103.498 94.4592 103.863C94.0775 104.227 93.6277 104.514 93.1354 104.705C92.643 104.896 92.1179 104.988 91.59 104.976C91.2551 104.971 90.9223 104.923 90.6 104.832ZM92.61 97.596C92.3307 97.5168 92.0422 97.4744 91.752 97.47C90.8652 97.4513 90.0047 97.7713 89.3456 98.3648C88.6865 98.9583 88.2785 99.7808 88.2045 100.665C88.1306 101.548 88.3963 102.427 88.9477 103.122C89.499 103.817 90.2944 104.275 91.1719 104.404C92.0494 104.533 92.9431 104.323 93.6709 103.816C94.3987 103.309 94.9058 102.543 95.0891 101.676C95.2724 100.808 95.1181 99.9028 94.6575 99.1449C94.1969 98.3869 93.4647 97.833 92.61 97.596Z" fill="#37474F"/>
<path d="M99.732 106.2C98.25 105.786 97.332 103.89 97.65 101.82C97.7861 100.825 98.231 99.8971 98.922 99.168C99.1997 98.8386 99.5575 98.5863 99.961 98.4354C100.364 98.2845 100.8 98.2401 101.226 98.3064C101.651 98.3727 102.053 98.5476 102.391 98.8141C102.73 99.0806 102.994 99.4298 103.158 99.828C103.595 100.731 103.738 101.749 103.566 102.738C103.224 104.934 101.622 106.506 99.966 106.254C99.8869 106.241 99.8087 106.223 99.732 106.2ZM101.346 98.88L101.142 98.832C100.8 98.7959 100.455 98.8419 100.135 98.9661C99.8143 99.0903 99.5281 99.2891 99.3 99.546C98.6935 100.196 98.3018 101.017 98.178 101.898C97.884 103.8 98.73 105.498 100.074 105.72C101.418 105.942 102.738 104.556 103.038 102.654C103.19 101.778 103.066 100.877 102.684 100.074C102.555 99.7942 102.37 99.5441 102.14 99.3396C101.909 99.1351 101.639 98.9807 101.346 98.886V98.88Z" fill="#37474F"/>
<path d="M95.496 101.484L95.22 101.022C95.898 100.608 97.398 100.146 98.22 101.334L97.776 101.64C97.038 100.572 95.556 101.448 95.496 101.484Z" fill="#37474F"/>
<path d="M77.6219 99.75L77.1899 99.432C77.3339 99.228 78.6719 97.452 79.8839 97.446C81.0959 97.44 88.0439 99.246 88.3439 99.294L88.2119 99.816C86.1959 99.306 80.7659 97.98 79.8899 97.986C79.0139 97.992 77.9999 99.258 77.6219 99.75Z" fill="#37474F"/>
<path d="M83.6941 99.528C83.6941 99.528 81.9481 94.806 79.8781 95.328C77.8081 95.85 78.3901 102.186 80.3101 103.536C80.5443 103.725 80.8144 103.865 81.1041 103.948C81.3939 104.03 81.6973 104.053 81.9961 104.015C82.2949 103.977 82.5829 103.878 82.8428 103.726C83.1026 103.574 83.3289 103.37 83.508 103.128L83.6941 99.528Z" fill="#EB9481"/>
<path d="M80.088 97.14V97.194C81.42 98.19 81.84 99.774 82.014 101.352C81.9715 101.177 81.8902 101.014 81.7762 100.875C81.6622 100.736 81.5183 100.624 81.3553 100.548C81.1922 100.472 81.0142 100.434 80.8343 100.436C80.6544 100.438 80.4773 100.48 80.316 100.56C80.268 100.56 80.316 100.65 80.316 100.65C80.6001 100.635 80.8819 100.708 81.1226 100.859C81.3634 101.011 81.5511 101.233 81.66 101.496C81.8407 101.936 81.9715 102.395 82.05 102.864C82.086 103.02 82.344 103.008 82.332 102.864V102.828C82.86 100.914 82.08 97.866 80.088 97.14Z" fill="#263238"/>
</svg>
